<svg width="60" height="64" viewBox="0 0 60 64" fill="none" xmlns="http://www.w3.org/2000/svg">
<path d="M55.6954 26.4817C55.692 36.6855 55.6532 46.8366 55.7047 56.9872C55.722 60.3905 53.5261 62.972 50.7377 63.7176C49.8624 63.9517 48.9666 64.0115 48.0695 63.9983C42.2368 63.9123 36.4039 63.9709 30.5712 63.9602C22.7113 63.9456 14.8514 63.9591 6.99151 63.9476C3.67114 63.9427 0.832603 61.6824 0.173975 58.5525C0.057724 58.0001 0.0093087 57.4405 0.00943137 56.8737C0.0128264 41.1538 0.028748 25.434 1.10113e-05 9.71419C-0.00668555 6.05155 3.04185 2.74445 6.89045 2.76054C16.0013 2.79864 25.1125 2.78072 34.2235 2.78202C39.2284 2.78273 44.2333 2.7733 49.2381 2.77855C49.7117 2.77904 50.1946 2.80779 50.6559 2.90496C51.0413 2.98614 51.2877 2.87156 51.543 2.61173C52.1846 1.9588 52.7816 1.25624 53.5101 0.695885C54.6342 -0.168684 55.8845 -0.172612 57.1039 0.381864C58.3141 0.932201 58.9653 1.9516 59.0776 3.29546C59.1841 4.57032 58.5726 5.53066 57.7263 6.38145C57.2048 6.90568 56.6711 7.41958 56.117 7.90874C55.7958 8.19227 55.6947 8.51109 55.6952 8.92919C55.7031 14.7624 55.6976 20.5956 55.6954 26.4817ZM53.4352 34.6774C53.4344 33.4791 53.433 32.2808 53.4329 31.0825C53.4325 27.399 53.4246 23.7154 53.4421 20.032C53.4444 19.5532 53.3515 19.3379 52.817 19.3429C50.5807 19.364 48.3439 19.3382 46.1075 19.3536C45.5779 19.3573 45.0528 19.428 44.5589 19.1671C44.4436 19.1063 44.3228 19.1329 44.1998 19.1694C43.391 19.4094 42.5789 19.6381 41.7712 19.882C40.8783 20.1515 39.9924 20.4448 39.0969 20.7053C38.5623 20.8608 38.1838 20.5633 38.2002 20.011C38.2068 19.7867 38.2659 19.5581 38.3354 19.3425C38.9571 17.4162 39.5885 15.493 40.2115 13.5671C40.3312 13.1972 40.5523 12.9376 40.8848 12.7271C41.7622 12.1716 42.6468 11.6218 43.3733 10.8614C45.1019 9.05221 46.8589 7.27101 48.6578 5.53143C48.7795 5.41378 48.9439 5.32303 48.9666 5.11484C48.772 4.99585 48.5569 5.04323 48.3535 5.04287C44.2999 5.03559 40.2462 5.0308 36.1925 5.02949C34.0247 5.02878 31.8567 5.04965 29.6891 5.02868C29.1729 5.02369 28.9903 5.19544 29.0434 5.69787C29.0765 6.01168 29.0703 6.33319 29.0465 6.6486C29.0154 7.06114 29.1778 7.21266 29.593 7.20613C30.7207 7.18836 31.8494 7.22581 32.9767 7.19812C35.8376 7.12786 39.3833 9.84152 38.2531 13.9917C37.8148 15.6007 36.2292 17.0435 34.5928 17.2718C33.9292 17.3643 33.3746 17.0204 33.2019 16.4091C33.0494 15.8693 33.3551 15.3299 33.9667 15.0776C34.1287 15.0107 34.3027 14.9731 34.4702 14.9189C35.5379 14.5736 36.3138 13.3071 36.1298 12.211C35.861 10.6085 34.5607 9.50222 32.9189 9.48972C31.5794 9.47953 30.2399 9.4767 28.9004 9.47622C26.3449 9.4753 23.7893 9.48104 21.2337 9.47838C20.3419 9.47745 19.8412 8.91269 20.0026 8.10975C20.1128 7.56139 20.5904 7.20721 21.262 7.20458C22.9187 7.19807 24.5756 7.18843 26.232 7.20996C26.6996 7.21603 26.9298 7.09977 26.8737 6.59031C26.8392 6.27688 26.8375 5.95295 26.8746 5.64008C26.9353 5.12803 26.7017 5.0155 26.2373 5.02018C24.3871 5.03886 22.5365 5.02548 20.686 5.02644C16.0331 5.02887 11.3801 5.01376 6.72745 5.04382C4.39613 5.05888 2.31422 7.10315 2.30285 9.39163C2.27684 14.626 2.29772 19.8607 2.28605 25.0952C2.28511 25.5177 2.44187 25.6527 2.84209 25.6467C3.72305 25.6334 4.60482 25.6322 5.48551 25.655C6.2339 25.6744 6.73071 26.1301 6.7354 26.7506C6.74047 27.4226 6.26117 27.8649 5.47427 27.8758C4.6462 27.8872 3.81769 27.8737 2.98946 27.8639C2.305 27.8558 2.2834 27.873 2.2835 28.5698C2.28416 33.117 2.28477 37.6642 2.28529 42.2114C2.2854 43.1669 2.28601 43.1416 3.21653 43.1714C3.71204 43.1873 3.85216 43.0109 3.84459 42.533C3.82035 41 3.85184 39.4662 3.82726 37.9332C3.81809 37.3612 4.00344 36.9337 4.40874 36.5294C8.21363 32.7336 12.045 28.9652 15.8971 25.2171C19.4712 21.7395 22.9846 18.1994 26.5243 14.6863C27.2644 13.9517 27.8135 13.9636 28.5508 14.7314C29.161 15.3668 29.7639 16.0095 30.3856 16.6335C34.8637 21.1276 39.3462 25.6174 43.8264 30.1094C45.5438 31.8314 47.2613 33.5534 48.9742 35.2799C49.9404 36.2537 49.933 36.6558 48.9585 37.5922C47.4979 38.9958 46.0374 40.3994 44.5778 41.804C44.1649 42.2012 43.7551 42.6018 43.3098 43.034C43.5631 43.1902 43.741 43.1622 43.911 43.1621C46.872 43.1619 49.833 43.1486 52.7938 43.1694C53.3129 43.173 53.4525 43.001 53.4484 42.5027C53.4272 39.9297 53.4368 37.3564 53.4352 34.6774ZM46.5138 36.1124C44.3726 33.9675 42.2173 31.8365 40.0933 29.6747C36.0798 25.5899 32.0393 21.5325 27.9539 17.5195C27.6084 17.1802 27.3869 17.1807 27.0505 17.5237C25.9158 18.681 24.7441 19.8015 23.5816 20.9313C19.703 24.7009 15.8532 28.5002 11.9932 32.2889C11.2415 33.0268 11.2647 33.0094 11.9504 33.7848C12.3011 34.1814 12.5181 34.1421 12.8616 33.7811C14.1002 32.4792 15.3638 31.2008 16.6258 29.9212C17.2795 29.2583 17.6777 29.2222 18.3345 29.8684C19.6026 31.116 20.8324 32.4026 22.0779 33.6731C22.1739 33.7711 22.2389 33.9108 22.4671 33.916C22.8323 33.549 23.2134 33.1349 23.6284 32.7582C23.9857 32.434 24.0331 32.1957 23.644 31.8291C22.8252 31.0576 22.2103 30.1358 21.9138 29.0331C20.9028 25.2742 24.1539 20.6835 29.2204 22.1373C31.5477 22.8052 32.8702 24.4572 33.2006 26.8967C33.5938 29.8005 31.7661 32.5101 28.9194 33.1683C28.6043 33.2411 28.2897 33.3162 27.9129 33.4049C28.0788 33.5942 28.1759 33.7167 28.2847 33.8276C29.5804 35.148 30.882 36.4627 32.1713 37.7894C32.4155 38.0408 32.6552 38.2168 33.0317 38.2132C33.4229 38.2094 33.7117 38.4521 33.9782 38.7281C35.4711 40.2747 36.9695 41.8162 38.4722 43.3534C38.6745 43.5604 38.824 43.8361 39.178 43.9619C39.6046 43.5239 40.0285 43.0787 40.4631 42.6441C42.4194 40.688 44.3804 38.7364 46.3339 36.7775C46.492 36.6189 46.7771 36.4794 46.5138 36.1124ZM10.4598 61.7728C13.6656 61.7725 16.8714 61.7689 20.0771 61.7768C20.446 61.7777 20.68 61.7229 20.6775 61.2709C20.6612 58.2592 20.6589 55.2474 20.6569 52.2356C20.6566 51.9385 20.5828 51.6843 20.3666 51.4721C18.4189 49.5596 16.4736 47.6448 14.5254 45.7329C14.3339 45.5449 14.1177 45.4055 13.8287 45.4042C10.167 45.3875 6.50534 45.3687 2.84371 45.3457C2.44517 45.3432 2.27912 45.5086 2.28029 45.9171C2.29111 49.6864 2.25925 53.4561 2.30474 57.225C2.33301 59.5674 4.11741 61.4088 6.44937 61.6841C7.75065 61.8376 9.05287 61.7353 10.4598 61.7728ZM31.7784 54.1456C30.981 54.9171 30.1868 55.6919 29.3842 56.458C29.1378 56.6931 29.0347 56.9602 29.0382 57.3028C29.0516 58.6064 29.0608 59.9105 29.038 61.2139C29.0302 61.66 29.191 61.7827 29.6197 61.7802C32.3329 61.7645 35.0463 61.7589 37.7593 61.7817C38.2863 61.7862 38.4104 61.5973 38.4045 61.1069C38.3815 59.1692 38.3923 57.231 38.3953 55.293C38.3966 54.4397 38.766 54.0624 39.6031 54.0455C39.8849 54.0398 40.1669 54.0403 40.4487 54.0402C44.5703 54.0392 48.6919 54.0334 52.8135 54.0452C53.2585 54.0465 53.4415 53.9297 53.4372 53.4517C53.4146 50.9325 53.4134 48.413 53.4222 45.8937C53.4236 45.4854 53.2927 45.3243 52.8743 45.3386C51.8537 45.3735 50.8308 45.417 49.8109 45.3871C46.9044 45.3019 43.9977 45.373 41.0912 45.345C40.8947 45.3431 40.663 45.2622 40.499 45.5104C40.554 45.7158 40.7244 45.8461 40.869 45.9936C42.0405 47.1884 43.213 48.3823 44.3839 49.5778C44.6328 49.8319 44.8618 50.1068 44.9118 50.4717C44.9844 51.0014 44.7591 51.3983 44.3036 51.6609C43.8723 51.9096 43.3753 51.844 42.9515 51.426C41.7229 50.2142 40.5074 48.989 39.2985 47.7575C38.8038 47.2535 38.8004 47.2311 38.3073 47.7153C36.1457 49.8381 33.9894 51.9662 31.7784 54.1456ZM17.3504 43.16C20.5197 43.1604 23.689 43.1556 26.8582 43.1678C27.2399 43.1693 27.5227 43.0625 27.7886 42.7856C28.6785 41.8587 29.5798 40.9421 30.4977 40.043C30.7793 39.7671 30.776 39.5876 30.5009 39.3114C28.8737 37.6779 27.2618 36.0293 25.6423 34.3882C25.5847 34.3299 25.5014 34.2968 25.3348 34.1921C22.4394 37.1857 19.5462 40.1772 16.6627 43.1585C16.7631 43.2276 17.0162 43.1311 17.3504 43.16ZM48.624 61.7704C49.5534 61.767 50.4465 61.6154 51.2422 61.0984C52.8106 60.0796 53.5407 58.6439 53.4363 56.7655C53.4129 56.3443 53.2803 56.2296 52.8765 56.2308C48.9684 56.2417 45.0602 56.2416 41.1522 56.2282C40.7155 56.2267 40.569 56.3691 40.5751 56.8058C40.5956 58.2666 40.6005 59.7283 40.5728 61.1889C40.5638 61.6634 40.7264 61.7863 41.1804 61.7826C43.6272 61.7631 46.0743 61.7718 48.624 61.7704ZM12.2816 37.2429C11.505 36.4751 10.7194 35.716 9.95635 34.9349C9.68652 34.6587 9.50194 34.6492 9.22413 34.9327C8.31195 35.8636 7.38213 36.7775 6.44332 37.6816C6.19184 37.9237 6.1006 38.1829 6.1036 38.5234C6.11554 39.88 6.12153 41.2369 6.09832 42.5932C6.0909 43.0264 6.22295 43.1819 6.66657 43.1729C7.91704 43.1476 9.16834 43.1654 10.4193 43.158C11.3166 43.1527 12.283 43.3387 13.0924 43.0655C13.9492 42.7762 14.4605 41.8362 15.1456 41.2047C15.1845 41.1689 15.2185 41.1276 15.2589 41.0939C15.5866 40.8205 15.579 40.5804 15.2643 40.27C14.2738 39.293 13.3092 38.2898 12.2816 37.2429ZM34.1352 48.5707C35.1757 47.5318 36.2567 46.5318 37.241 45.4247C35.7378 43.9559 34.2814 42.5329 32.8031 41.0884C32.793 41.0946 32.7249 41.1209 32.6772 41.1679C31.549 42.2804 30.4233 43.3954 29.2964 44.5093C29.0782 44.7249 29.0385 44.9915 29.0393 45.2845C29.0467 47.821 29.0464 50.3575 29.0528 52.894C29.0531 53.0447 29.0039 53.2132 29.2129 53.4143C30.8362 51.817 32.4591 50.2201 34.1352 48.5707ZM26.8681 52.2324C26.8681 52.0562 26.8428 51.8757 26.8722 51.7045C27.0295 50.7901 26.6293 50.1459 25.977 49.5397C24.713 48.3649 23.4901 47.1446 22.2802 45.9135C21.8634 45.4894 21.4258 45.2976 20.8318 45.3369C20.1828 45.3798 19.5286 45.3439 18.8767 45.3429C18.4467 45.3423 18.0166 45.3428 17.5877 45.3428C18.6711 46.4299 19.7068 47.4691 20.7634 48.5293C20.8795 48.4351 21.02 48.3035 21.1773 48.1965C21.9063 47.7007 22.7814 48.0858 22.8094 48.9368C22.9 51.6822 22.8722 54.4282 22.8428 57.1747C22.8329 58.0966 22.7714 59.0284 22.9234 59.9764C23.0079 59.9392 23.0636 59.9305 23.0959 59.8983C24.2548 58.7414 25.4111 57.5819 26.5691 56.4241C26.794 56.1991 26.88 55.9378 26.8755 55.6152C26.8603 54.523 26.8687 53.4304 26.8681 52.2324ZM24.0835 27.5912C24.1088 29.5762 25.5571 31.0205 27.5235 31.0216C29.393 31.0227 30.9804 29.5032 30.993 27.7006C31.007 25.6876 29.5583 24.2093 27.5244 24.1615C25.5638 24.1155 24.1468 25.4889 24.0835 27.5912ZM49.5389 11.2049C49.8478 10.8913 50.1556 10.5766 50.4658 10.2643C52.4636 8.25335 54.4646 6.24561 56.458 4.23031C56.9457 3.73715 56.9274 3.20789 56.4389 2.70158C55.9426 2.18723 55.3584 2.15828 54.8619 2.63764C54.6344 2.85733 54.4361 3.10706 54.2119 3.33056C51.1573 6.37666 48.1002 9.42026 45.0452 12.466C44.9238 12.5871 44.7635 12.6845 44.7348 12.9419C45.2223 13.3898 45.7366 13.8624 46.3074 14.3869C47.3361 13.3741 48.411 12.3158 49.5389 11.2049ZM18.5477 37.7419C19.2628 37.0223 20.0575 36.3795 20.6862 35.5605C20.6383 35.4836 20.6117 35.4166 20.565 35.3696C19.6487 34.4471 18.7259 33.5312 17.8147 32.6039C17.5601 32.3449 17.3902 32.4842 17.2011 32.6741C16.3827 33.496 15.5584 34.3121 14.7436 35.1375C14.5389 35.3449 14.2675 35.5006 14.1723 35.7862C15.2448 36.8369 16.3032 37.8736 17.3385 38.8879C17.7041 38.541 18.0984 38.1669 18.5477 37.7419ZM53.4229 15.7455C53.4229 14.1193 53.4229 12.493 53.4229 10.8524C51.3329 12.9429 49.2905 14.9858 47.2479 17.029C47.3545 17.1306 47.5334 17.1385 47.7085 17.1262C49.1854 17.0229 50.6612 17.1819 52.138 17.1371C53.6015 17.0927 53.4051 17.375 53.4229 15.7455ZM41.6526 16.9301C41.6445 17.0766 41.4815 17.208 41.6377 17.4174C42.6333 17.1247 43.6474 16.8535 44.7481 16.419C43.9986 15.6937 43.4481 14.9548 42.6718 14.3578C42.2183 15.1953 42.0271 16.0584 41.6526 16.9301ZM24.9438 61.7701C25.452 61.7698 25.9603 61.7659 26.4684 61.7707C26.7254 61.7732 26.8638 61.6689 26.8627 61.4003C26.8603 60.8089 26.862 60.2175 26.862 59.5234C26.116 60.2285 25.445 60.8588 24.7797 61.4949C24.6462 61.6225 24.6332 61.741 24.9438 61.7701ZM26.8644 46.0541C26.7891 45.8029 27.0218 45.3882 26.5453 45.3495C26.0989 45.3133 25.6473 45.3418 25.1857 45.3418C25.7883 45.917 26.3401 46.4436 26.8654 46.9449C26.8654 46.7353 26.8654 46.4391 26.8644 46.0541Z" fill="white"/>
<path d="M43.864 27.1999C42.6089 26.269 42.0029 25.0644 42.3376 23.5557C42.6307 22.2341 43.4565 21.293 44.8078 20.923C45.6307 20.6977 46.4516 20.7717 47.2268 21.1339C47.494 21.2587 47.7063 21.2536 47.9701 21.1283C49.6528 20.329 51.6709 21.0084 52.4991 22.6381C53.3598 24.3317 52.7101 26.4752 51.0389 27.3271C50.0126 27.8503 48.9461 27.8755 47.8969 27.3556C47.6988 27.2575 47.5441 27.1933 47.3127 27.3072C46.1649 27.8719 45.0189 27.9009 43.864 27.1999ZM46.4236 23.4318C46.1098 23.1041 45.7563 22.911 45.296 23.1175C44.8065 23.337 44.6045 23.7462 44.5865 24.2561C44.5695 24.737 44.7572 25.1113 45.2131 25.3188C45.5867 25.4888 45.9389 25.4314 46.2513 25.1815C46.5575 24.9365 46.7381 24.6281 46.6365 24.2135C46.5784 23.9761 46.5236 23.7378 46.4236 23.4318ZM50.1542 23.2628C49.9955 23.1916 49.8432 23.0929 49.6769 23.0545C49.1465 22.9317 48.91 23.1443 48.9245 23.6768C48.9354 24.0785 48.9534 24.4856 48.9015 24.8815C48.8542 25.2426 49.008 25.3622 49.3171 25.3929C49.8232 25.4431 50.2131 25.2376 50.4584 24.8067C50.7719 24.2561 50.5784 23.7655 50.1542 23.2628Z" fill="white"/>
<path d="M12.522 13.3915C10.232 13.3913 7.99491 13.3959 5.75784 13.3878C5.1908 13.3857 4.79581 13.0852 4.68464 12.625C4.56773 12.1411 4.78986 11.5994 5.20789 11.3377C5.51735 11.144 5.8611 11.2143 6.18837 11.2264C6.56622 11.2404 6.73104 11.1232 6.82717 10.7262C7.32027 8.68993 9.16599 7.23027 11.2291 7.1954C13.4488 7.15787 15.2378 8.41385 15.8148 10.5215C15.9772 11.1148 16.2276 11.2578 16.7861 11.2318C17.637 11.1921 18.0666 11.5787 18.059 12.2732C18.0514 12.9751 17.5704 13.3929 16.7497 13.3947C15.3581 13.3976 13.9665 13.393 12.522 13.3915ZM13.3816 10.5528C12.1866 8.9203 10.2162 9.21296 9.36168 10.5853C9.06685 11.0589 9.13835 11.2029 9.70504 11.2085C10.8672 11.22 12.0295 11.2149 13.1917 11.2123C13.3265 11.212 13.4791 11.246 13.579 11.1013C13.6205 10.9096 13.4997 10.769 13.3816 10.5528Z" fill="white"/>
<path d="M11.2317 23.9225C13.3221 21.8536 15.3848 19.81 17.4507 17.7696C17.9996 17.2275 18.5654 17.2358 19.1157 17.78C19.6061 18.2649 19.623 18.9179 19.1134 19.4167C16.3718 22.0998 13.6226 24.7752 10.8699 27.447C10.7224 27.5901 10.5293 27.6981 10.3398 27.7837C9.82609 28.0157 9.29386 27.8802 8.96537 27.4569C8.64163 27.0396 8.64399 26.5689 9.03875 26.1104C9.39365 25.6982 9.79698 25.3273 10.1838 24.9429C10.5208 24.6081 10.8645 24.28 11.2317 23.9225Z" fill="white"/>
<path d="M5.21951 23.8924C4.73676 23.7588 4.56186 23.4424 4.55942 23.0139C4.55471 22.188 4.54801 21.3618 4.56221 20.5361C4.57276 19.9234 4.85629 19.6303 5.47176 19.6131C6.24442 19.5915 7.01824 19.5944 7.79123 19.6069C8.36685 19.6163 8.65739 19.8467 8.69007 20.4215C8.73985 21.2973 8.74527 22.1783 8.71393 23.0552C8.69373 23.62 8.30053 23.9448 7.73891 23.9423C6.91372 23.9386 6.08861 23.9162 5.21951 23.8924Z" fill="white"/>
<path d="M8.09639 15.5406C8.44606 14.6491 9.0504 14.3764 9.81037 14.8231C10.8932 15.4595 11.9306 15.4129 13.002 14.8167C13.7071 14.4243 14.3929 14.6694 14.6328 15.3541C14.7671 15.7377 14.6763 16.0749 14.4353 16.391C13.8411 17.1704 12.9845 17.4185 12.0781 17.5128C10.9962 17.6253 9.93207 17.5354 8.96996 16.9537C8.45644 16.6433 8.03024 16.263 8.09639 15.5406Z" fill="white"/>
<path d="M21.2541 17.0137C20.681 17.0354 20.2456 16.8728 20.0061 16.3546C19.8184 15.9484 19.8389 15.5544 20.1544 15.229C20.9734 14.3845 21.7924 13.5387 22.6442 12.7279C23.0196 12.3706 23.6238 12.4196 23.998 12.7464C24.4031 13.1002 24.605 13.7574 24.3076 14.1217C23.4759 15.1405 22.5322 16.058 21.5386 16.9212C21.4776 16.9742 21.3761 16.9808 21.2541 17.0137Z" fill="white"/>
<path d="M5.24767 32.2244C4.69717 32.105 4.41885 31.772 4.35058 31.2714C4.28919 30.8213 4.39622 30.4261 4.83149 30.1909C5.22251 29.9797 5.6133 29.9862 5.97723 30.2467C6.38385 30.5377 6.47823 30.96 6.38585 31.4212C6.28771 31.9111 5.91263 32.1711 5.24767 32.2244Z" fill="white"/>
<path d="M43.8558 7.87149C44.043 8.45276 43.805 8.83901 43.3696 9.11341C43.0178 9.33508 42.6456 9.2618 42.3477 8.99837C41.9587 8.65447 41.9288 8.20861 42.1087 7.74489C42.2449 7.39398 42.5342 7.23879 42.891 7.22239C43.3435 7.20158 43.6551 7.42699 43.8558 7.87149Z" fill="white"/>
<path d="M51.1488 41.0916C50.7885 41.4697 50.384 41.5305 49.9689 41.3367C49.6486 41.187 49.4889 40.8993 49.4867 40.5263C49.4843 40.1169 49.6368 39.792 50.0117 39.6361C50.3636 39.4898 50.7437 39.4848 51.0449 39.7705C51.349 40.0588 51.4462 40.4202 51.2976 40.8262C51.2679 40.9074 51.2157 40.9803 51.1488 41.0916Z" fill="white"/>
<path d="M49.8002 30.2006C50.2503 29.9736 50.6494 29.9595 51.0007 30.3024C51.2573 30.5528 51.3724 30.8585 51.2557 31.2128C51.1302 31.5938 50.8722 31.8403 50.4632 31.8916C50.0532 31.943 49.7402 31.7832 49.5485 31.4152C49.3147 30.9662 49.3986 30.5682 49.8002 30.2006Z" fill="white"/>
<path d="M6.20053 8.39822C6.03138 9.12856 5.55432 9.50327 5.02887 9.36118C4.57524 9.23851 4.29294 8.66422 4.43912 8.16592C4.55837 7.75942 4.8408 7.52877 5.25065 7.54813C5.74947 7.57167 6.1209 7.80804 6.20053 8.39822Z" fill="white"/>
<path d="M32.5978 11.9576C33.1742 12.0426 33.4597 12.3577 33.4529 12.892C33.4474 13.3349 33.1889 13.6093 32.76 13.702C32.1873 13.8259 31.7269 13.5395 31.6435 13.0241C31.5429 12.4019 31.8577 12.0323 32.5978 11.9576Z" fill="white"/>
<path d="M51.331 34.5291C51.063 34.6893 50.8237 34.7707 50.5446 34.6832C50.0585 34.5307 49.812 34.0567 49.9955 33.6019C50.1779 33.1499 50.6915 32.9503 51.138 33.1578C51.5942 33.3698 51.7698 33.8742 51.5303 34.3006C51.488 34.3759 51.4199 34.4369 51.331 34.5291Z" fill="white"/>
<path d="M34.9169 34.0728C35.5937 33.3767 36.2369 32.7003 36.8971 32.0408C37.4681 31.4705 37.9094 31.4727 38.4822 32.0438C39.3052 32.8644 40.1291 33.6848 40.9291 34.5276C41.6694 35.3073 41.6354 35.755 40.8651 36.491C40.0759 37.2451 39.2978 38.0108 38.5145 38.771C37.8527 39.4132 37.4107 39.4149 36.7583 38.7656C36.022 38.0328 35.296 37.2896 34.5584 36.5581C33.7325 35.739 33.7123 35.4252 34.4603 34.5649C34.5988 34.4056 34.747 34.2546 34.9169 34.0728ZM38.2661 35.8871C38.7395 35.3733 38.6144 35.0821 37.6178 34.4561C37.3617 34.7215 37.0949 34.9943 36.8329 35.2718C36.7624 35.3465 36.6655 35.4437 36.7386 35.5462C36.971 35.8724 37.1841 36.2653 37.5465 36.4173C37.8797 36.5571 37.9855 36.1022 38.2661 35.8871Z" fill="white"/>
<path d="M11.305 53.0744C12.3814 52.0064 13.4179 50.9497 14.486 49.9257C15.2191 49.223 16.2771 49.5059 16.531 50.4376C16.6722 50.9558 16.4102 51.3114 16.0673 51.647C14.7205 52.9652 13.3852 54.2953 12.0295 55.6042C11.7288 55.8944 11.6293 56.2014 11.5871 56.6152C11.4235 58.2229 10.1418 59.8094 8.1017 59.9025C5.6418 60.0148 3.80117 57.8076 4.31951 55.397C4.88226 52.7799 7.87794 51.6231 10.095 53.1669C10.732 53.6104 10.732 53.6104 11.305 53.0744ZM8.90026 57.1764C8.96545 57.0941 9.03747 57.0162 9.09473 56.9286C9.49443 56.3175 9.42232 55.6717 8.90148 55.1666C8.39481 54.6752 7.69982 54.6195 7.12539 55.0242C6.48231 55.4772 6.30835 56.3404 6.7317 56.9777C7.19766 57.6792 8.033 57.7788 8.90026 57.1764Z" fill="white"/>
<path d="M4.37708 48.5171C4.6466 47.7505 4.83717 47.6088 5.57332 47.6021C5.96091 47.5986 6.34891 47.592 6.73612 47.6049C7.337 47.6248 7.66769 47.9667 7.69275 48.5718C7.72007 49.2317 7.39109 49.7014 6.80528 49.7301C6.24461 49.7576 5.67779 49.7281 5.11775 49.6781C4.66252 49.6374 4.42532 49.2459 4.37708 48.5171Z" fill="white"/>
<path d="M10.9453 47.6125C11.2946 47.6125 11.5946 47.5963 11.8921 47.6163C12.4435 47.6532 12.8149 48.0293 12.8487 48.557C12.8828 49.0896 12.5363 49.5913 12.0227 49.6876C11.4671 49.7917 10.8999 49.7707 10.3425 49.7018C9.78399 49.6327 9.4857 49.1821 9.52223 48.5461C9.55272 48.0151 9.88552 47.6699 10.4204 47.6239C10.5776 47.6103 10.7366 47.6158 10.9453 47.6125Z" fill="white"/>
<path d="M17.9083 59.861C17.3389 59.8171 16.9673 59.5611 16.8431 59.033C16.7205 58.5114 16.9995 58.0351 17.4952 57.8555C17.9734 57.6823 18.527 57.8987 18.7524 58.3471C18.9847 58.8091 18.827 59.3878 18.3882 59.7004C18.2548 59.7954 18.1078 59.8429 17.9083 59.861Z" fill="white"/>
<path d="M16.1892 54.9943C16.4527 55.4487 16.402 55.8478 16.073 56.1866C15.8221 56.445 15.499 56.5267 15.155 56.3667C14.8323 56.2165 14.6108 55.9787 14.6039 55.5999C14.5975 55.2401 14.7239 54.9303 15.0582 54.7718C15.4574 54.5825 15.8431 54.6222 16.1892 54.9943Z" fill="white"/>
<path d="M17.6935 51.3131C18.1314 51.3682 18.3647 51.6063 18.4518 51.9802C18.5583 52.437 18.2577 52.893 17.8205 52.9687C17.3994 53.0417 16.9725 52.7537 16.8734 52.3299C16.7578 51.8348 17.0599 51.439 17.6935 51.3131Z" fill="white"/>
<path d="M51.3786 50.2798C51.3667 52.0084 51.3667 52.0083 49.7031 52.0038C49.1041 52.0022 48.5052 51.9968 47.9063 52.0014C47.4266 52.0051 47.1233 51.7737 47.0568 51.3086C46.9067 50.2586 46.9507 49.2006 47.0337 48.1493C47.0716 47.6693 47.4215 47.4035 47.9081 47.3961C48.7887 47.3827 49.67 47.3756 50.5502 47.3978C51.1379 47.4125 51.4182 47.7784 51.4077 48.433C51.398 49.0315 51.3883 49.6301 51.3786 50.2798ZM49.2263 49.9035C49.443 49.7754 49.4556 49.6027 49.2934 49.4359C49.1968 49.3366 49.0408 49.3572 48.9849 49.4864C48.9091 49.6617 48.8499 49.871 49.2263 49.9035Z" fill="white"/>
<path d="M38.0995 50.2837C38.4995 49.8394 38.9434 49.7267 39.4559 49.9646C39.9354 50.1872 40.0943 50.5848 40.0547 51.09C40.0156 51.5895 39.7424 51.9049 39.281 52.0487C38.856 52.1811 38.4698 52.0677 38.1815 51.7327C37.8061 51.2965 37.7778 50.8146 38.0995 50.2837Z" fill="white"/>
<path d="M35.0117 55.1938C34.4587 54.7872 34.2622 54.3144 34.4435 53.8219C34.6168 53.3511 34.9485 53.0761 35.4746 53.0764C36.1746 53.0769 36.6019 53.54 36.5617 54.2617C36.5264 54.8955 35.9829 55.361 35.351 55.2919C35.2481 55.2807 35.1486 55.2388 35.0117 55.1938Z" fill="white"/>
<path d="M34.6905 59.3824C34.542 59.1053 34.5074 58.8556 34.5771 58.5845C34.7072 58.0788 35.0953 57.7261 35.5789 57.7257C36.0228 57.7253 36.3641 57.9235 36.53 58.3462C36.7219 58.8353 36.5403 59.4389 36.1416 59.7196C35.7383 60.0035 35.3106 59.9684 34.8895 59.6114C34.8233 59.5552 34.7718 59.4816 34.6905 59.3824Z" fill="white"/>
<path d="M30.3773 58.3383C30.4732 58.2063 30.5397 58.0989 30.631 58.0204C31.0276 57.6793 31.5757 57.6617 31.9909 57.9665C32.3641 58.2405 32.4667 58.8048 32.2338 59.302C32.027 59.7435 31.6046 59.9681 31.1652 59.8702C30.6391 59.753 30.2577 59.3003 30.2683 58.7825C30.2712 58.6466 30.3275 58.5117 30.3773 58.3383Z" fill="white"/>
<path d="M44.4794 58.5093C44.4927 58.6862 44.5161 58.8281 44.4948 58.963C44.4075 59.5157 44.0156 59.8928 43.5292 59.9103C43.0878 59.9262 42.6636 59.5771 42.5522 59.1062C42.4456 58.6552 42.6763 58.1342 43.0666 57.9446C43.5276 57.7207 44.0431 57.8534 44.3726 58.285C44.4143 58.3397 44.4373 58.4087 44.4794 58.5093Z" fill="white"/>
<path d="M48.2389 57.8555C49.0081 58.1036 49.2978 58.6486 49.0318 59.2675C48.7898 59.8305 48.1797 60.0394 47.6292 59.7427C47.1989 59.5109 47.0676 59.1287 47.1425 58.6733C47.2289 58.1478 47.5754 57.8894 48.2389 57.8555Z" fill="white"/>
</svg>
