<svg width="55" height="56" viewBox="0 0 55 56" fill="none" xmlns="http://www.w3.org/2000/svg">
<path d="M30.2614 1.03577C31.5867 2.07925 32.2725 3.43192 32.312 5.08114C32.3667 7.36705 30.9077 9.38016 28.7029 10.0934C28.3615 10.2038 28.2537 10.3733 28.2546 10.7088C28.2623 13.4342 28.2572 16.1597 28.2611 18.8852C28.2618 19.3678 28.3084 19.4075 28.7729 19.4088C29.6647 19.4114 30.5566 19.4008 31.4481 19.4148C31.7421 19.4195 31.852 19.3156 31.8474 19.0233C31.8402 18.5603 31.8287 18.0915 31.9454 17.6396C32.1234 16.95 32.637 16.5564 33.3432 16.5552C35.0011 16.5524 36.659 16.5537 38.3169 16.5599C39.0075 16.5625 39.5432 17.026 39.634 17.7125C39.7398 18.5121 39.7176 19.3208 39.6719 20.12C39.6357 20.7515 39.9 21.07 40.4476 21.2785C41.3691 21.6295 42.225 22.1 42.9532 22.7785C43.0267 22.8469 43.1055 22.912 43.1679 22.9898C43.6329 23.5693 44.1774 24.0318 44.8216 24.4281C45.7703 25.0118 46.131 26.0104 46.321 27.0656C46.4126 27.5738 46.4172 28.0885 46.4167 28.6041C46.4127 32.4976 46.4152 36.3912 46.4125 40.2847C46.4106 43.0773 44.1715 45.4228 41.3838 45.6127C39.2464 45.7583 37.4889 45.0834 36.1563 43.3767C35.548 42.5976 35.317 41.6726 35.1394 40.7324C34.9657 39.8123 34.9843 39.8255 34.0811 39.9922C32.5976 40.2661 31.2019 40.111 30.0165 39.0644C29.8749 38.9393 29.7189 38.8963 29.5343 38.8965C27.9141 38.8977 26.2939 38.8949 24.6737 38.8914C24.5316 38.8911 24.4031 38.9089 24.29 39.0093C22.8677 40.2727 21.2516 40.3531 19.5301 39.7853C19.4958 39.774 19.4579 39.7736 19.3985 39.7646C19.2064 40.2042 19.1507 40.6797 19.0677 41.1402C18.5818 43.8337 16.2716 45.5441 13.6786 45.652C10.42 45.7876 8.101 43.346 7.84384 40.6625C7.75961 39.7834 7.79635 38.906 7.79334 38.0283C7.7822 34.7879 7.7676 31.5473 7.79745 28.3071C7.80866 27.0904 8.04446 25.9108 8.8602 24.9271C9.14822 24.5797 9.4934 24.3147 9.90606 24.1485C10.2311 24.0177 10.4932 23.8225 10.7097 23.5513C11.5457 22.504 12.6244 21.7913 13.8495 21.2798C14.0337 21.203 14.2159 21.1131 14.3818 21.0032C14.5592 20.8857 14.6297 20.7087 14.6236 20.4844C14.6037 19.744 14.593 19.0032 14.5941 18.2625C14.5948 17.7883 14.6966 17.339 15.0292 16.9727C15.2798 16.6969 15.5939 16.559 15.9648 16.5586C17.6604 16.5568 19.3561 16.5477 21.0515 16.5614C21.8336 16.5677 22.4192 17.2416 22.4137 18.0679C22.4115 18.4067 22.4259 18.7456 22.4256 19.0845C22.4253 19.2947 22.4959 19.412 22.7309 19.4106C23.7357 19.405 24.7405 19.4043 25.7452 19.4108C26.0225 19.4126 26.0378 19.2446 26.037 19.0388C26.034 18.1596 26.0348 17.2804 26.0345 16.4012C26.0338 14.5047 26.0242 12.6081 26.0409 10.7117C26.044 10.3589 25.9279 10.2038 25.5946 10.1007C23.3021 9.39204 21.978 7.44312 21.9653 5.10781C21.9519 2.63261 23.7344 0.542207 26.1396 0.0955581C27.6484 -0.184627 28.998 0.157994 30.2614 1.03577ZM30.9292 25.2707C31.5132 23.7757 32.5033 22.6174 33.8467 21.7305C29.3676 21.7305 24.8885 21.7305 20.324 21.7305C23.936 24.3738 24.7188 27.6552 22.7981 31.6071C23.3834 31.8546 23.9294 32.1352 24.382 32.5628C25.4343 33.5568 25.88 34.7931 25.8227 36.2231C25.8149 36.4195 25.8142 36.5826 26.0685 36.5832C26.7964 36.5848 27.5244 36.5851 28.2524 36.5838C28.4182 36.5835 28.532 36.5116 28.4788 36.3297C28.3973 36.0504 28.4763 35.7806 28.5026 35.5085C28.6728 33.7491 29.522 32.4722 31.1732 31.7685C31.2742 31.7254 31.3942 31.7087 31.461 31.5844C30.3278 29.5872 30.1534 27.4969 30.9292 25.2707ZM10.0104 35.1437C10.0114 36.7514 10.0067 38.359 10.0158 39.9666C10.0198 40.6761 10.231 41.3351 10.6533 41.9021C11.4907 43.0263 12.6375 43.4702 13.9983 43.2147C15.3259 42.9654 16.2941 42.1786 16.7366 40.8928C17.0247 40.0558 17.152 39.1641 17.3628 38.2997C17.4166 38.0787 17.3339 37.907 17.2336 37.7321C16.8889 37.131 16.7383 36.4747 16.6807 35.7925C16.6481 35.4066 16.6228 35.4081 15.9341 35.3947C15.5729 35.3877 15.6376 35.6183 15.6372 35.8203C15.6338 37.3526 15.6354 38.8848 15.633 40.4171C15.6327 40.5926 15.6137 40.7679 15.6088 40.9435C15.6032 41.1401 15.4791 41.1969 15.3113 41.2085C14.9759 41.2317 14.9629 41.0106 14.9631 40.7641C14.9645 39.1063 14.9615 37.4484 14.9606 35.7906C14.9603 35.1335 14.7281 34.9335 14.0566 35.0189C13.9767 35.197 14.0063 35.3882 14.006 35.5742C14.0028 37.6214 14.0029 39.6686 14.0019 41.7158C14.0019 41.8288 13.9994 41.9418 13.9987 42.0549C13.9969 42.321 13.8167 42.3467 13.6118 42.3473C13.398 42.3479 13.3412 42.2409 13.3414 42.0373C13.3419 41.3722 13.3174 40.7071 13.3137 40.042C13.3041 38.334 13.3013 36.6259 13.2934 34.9178C13.2926 34.7587 13.3309 34.5762 13.1614 34.4725C12.9102 34.319 12.6683 34.1435 12.3448 34.0526C12.3286 34.2292 12.3057 34.3768 12.3033 34.5248C12.2925 35.1899 12.2832 35.8552 12.2815 36.5204C12.2772 38.1783 12.2784 39.8361 12.2747 41.494C12.2738 41.8605 12.1536 41.9775 11.8793 41.9037C11.6276 41.836 11.7013 41.6289 11.7009 41.4686C11.6957 38.9316 11.6935 36.3946 11.699 33.8576C11.6996 33.5889 11.6324 33.3827 11.4302 33.1919C10.9813 32.768 10.5984 32.2867 10.2915 31.7471C10.2423 31.6606 10.22 31.5268 10.0104 31.5383C10.0104 32.7168 10.0104 33.8926 10.0104 35.1437ZM38.5361 35.4121C38.4162 35.3345 38.2906 35.4091 38.1701 35.398C37.7625 35.3605 37.6423 35.5716 37.6074 35.9431C37.5434 36.6226 37.3701 37.2775 37.0062 37.8673C36.8839 38.0656 36.8984 38.2716 36.9462 38.4855C37.0937 39.1463 37.2372 39.8079 37.3839 40.4688C37.7688 42.2028 39.205 43.2618 40.8895 43.2767C42.7852 43.2934 44.2059 41.8133 44.2064 39.9133C44.207 37.2385 44.2047 34.5636 44.2008 31.8887C44.2006 31.7969 44.2416 31.6884 44.1116 31.5865C43.7589 32.1411 43.419 32.7023 42.918 33.1272C42.6826 33.3268 42.6175 33.558 42.62 33.8541C42.6313 35.1726 42.6257 36.4913 42.6257 37.8098C42.6257 39.0154 42.6259 40.221 42.6232 41.4265C42.6229 41.575 42.6515 41.7392 42.539 41.8587C42.4346 41.9696 42.2851 41.9645 42.1497 41.9296C41.9407 41.8756 42.0005 41.6924 41.9993 41.5531C41.9798 39.2429 41.9655 36.9326 41.9459 34.6224C41.9445 34.4544 41.993 34.2709 41.8614 34.1243C41.1367 34.3179 40.9791 34.511 40.9787 35.1989C40.9772 37.4217 40.9764 39.6445 40.9739 41.8673C40.9735 42.2603 40.8143 42.4006 40.4876 42.3111C40.2057 42.2339 40.2749 42.0005 40.2745 41.8142C40.2704 39.83 40.2736 37.8458 40.2741 35.8616C40.2741 35.6481 40.2704 35.4347 40.2678 35.2212C40.266 35.0795 40.2265 34.9817 40.0533 34.9813C39.5923 34.9802 39.3151 35.2466 39.3145 35.7099C39.3123 37.3801 39.3134 39.0503 39.3084 40.7205C39.3077 40.9569 39.3298 41.2191 38.9617 41.219C38.6016 41.2189 38.6116 40.9785 38.6117 40.7285C38.6124 39.523 38.6156 38.3173 38.6069 37.1118C38.6029 36.5606 38.6468 36.0081 38.5361 35.4121ZM27.9022 2.36749C27.3415 2.25666 26.7823 2.23852 26.2271 2.3992C25.0294 2.74585 24.1755 3.92589 24.2104 5.28544C24.2547 7.00394 26.0105 8.39623 27.6683 7.99632C29.0316 7.66745 30.0118 6.6212 30.0837 5.36135C30.1628 3.97368 29.3635 2.85352 27.9022 2.36749ZM22.0829 37.6754C23.1656 37.1613 23.662 36.2117 23.4286 35.101C23.2207 34.1115 22.3355 33.4101 21.2421 33.3686C19.773 33.3127 18.6856 34.6171 18.9672 36.0575C19.1992 37.2439 20.5782 38.2656 22.0829 37.6754ZM32.5592 33.4239C31.5387 33.7145 30.8521 34.5092 30.811 35.4474C30.7646 36.5083 31.3264 37.3864 32.3015 37.7331C33.1759 38.044 33.9809 37.8581 34.6377 37.2331C35.2946 36.6081 35.5232 35.8251 35.2312 34.9302C34.8659 33.8104 33.9733 33.2883 32.5592 33.4239ZM15.1337 29.3167C15.1302 30.219 15.1291 31.1214 15.1216 32.0237C15.1195 32.2786 15.2331 32.3841 15.4866 32.3804C16.038 32.3725 16.5897 32.3713 17.1411 32.3795C17.4158 32.3836 17.5239 32.2597 17.5223 31.9937C17.5173 31.1539 17.517 30.314 17.5221 29.4742C17.5235 29.2513 17.4254 29.1556 17.2085 29.1513C16.6448 29.1401 16.0813 29.1209 15.5176 29.1112C15.3808 29.1089 15.2378 29.1164 15.1337 29.3167ZM20.7557 28.2776C20.7553 27.9134 20.7564 27.5492 20.754 27.185C20.7503 26.6364 20.6811 26.5555 20.1242 26.5536C19.409 26.5512 18.6937 26.5761 17.9784 26.5785C17.7254 26.5793 17.6149 26.6748 17.6205 26.9363C17.6315 27.451 17.6221 27.9661 17.6229 28.481C17.6236 28.9878 17.6246 28.9893 18.1159 28.9909C18.7815 28.993 19.4471 28.9934 20.1128 28.9927C20.7486 28.992 20.7486 28.991 20.7557 28.2776ZM17.0216 26.4187C17.5192 26.4097 17.5206 26.4097 17.52 25.9133C17.5191 25.1737 17.504 24.4339 17.5194 23.6946C17.526 23.3786 17.3945 23.2669 17.0998 23.2697C16.5734 23.2745 16.0468 23.273 15.5204 23.2663C15.2387 23.2627 15.1115 23.3795 15.1159 23.6713C15.1278 24.4734 15.1312 25.2758 15.1235 26.078C15.121 26.3427 15.23 26.431 15.4829 26.4248C15.9716 26.413 16.4606 26.4197 17.0216 26.4187ZM12.3806 26.582C12.0016 26.5373 11.8639 26.714 11.878 27.0831C11.8971 27.5834 11.8902 28.085 11.8852 28.5859C11.8824 28.869 12.0035 28.9939 12.292 28.991C13.081 28.9828 13.8702 28.9827 14.6592 28.9912C14.9165 28.994 15.0193 28.8939 15.0148 28.636C15.0053 28.085 14.9995 27.5333 15.0191 26.9829C15.0296 26.6868 14.9206 26.5814 14.631 26.5849C13.9047 26.5938 13.1782 26.5843 12.3806 26.582ZM39.2083 23.1819C38.281 22.3742 37.0452 22.8321 36.7173 23.6792C36.4542 24.3586 36.7306 25.1484 37.3806 25.5375C38.0177 25.9188 38.8332 25.7745 39.317 25.195C39.8156 24.5977 39.7892 23.8454 39.2083 23.1819ZM33.7607 26.42C33.1464 26.6852 32.8049 27.2297 32.8499 27.8719C32.8928 28.483 33.3398 29.0484 33.9021 29.2027C34.5581 29.3828 35.2796 29.1448 35.6456 28.6276C36.0117 28.1102 35.9856 27.4218 35.5792 26.8758C35.2064 26.375 34.4884 26.18 33.7607 26.42ZM39.0844 32.589C39.1236 32.5575 39.1652 32.5288 39.2015 32.4943C39.699 32.0207 39.8245 31.3983 39.5421 30.8102C39.2557 30.2137 38.615 29.8502 37.9756 29.9214C37.3166 29.9948 36.8042 30.457 36.6657 31.0932C36.5252 31.7383 36.7796 32.2402 37.281 32.5991C37.8425 33.001 38.4482 33.0173 39.0844 32.589ZM43.3066 28.6598C43.7244 27.9595 43.6669 27.2416 43.1519 26.7287C42.6743 26.2531 41.8869 26.1482 41.3114 26.5039C40.7699 26.8386 40.5273 27.3358 40.6035 27.9709C40.6804 28.6114 41.0474 29.0198 41.6574 29.2068C42.3068 29.4059 42.8375 29.2018 43.3066 28.6598ZM20.0199 18.3148C19.1435 18.3142 18.2672 18.3126 17.3909 18.3131C16.6028 18.3136 16.6119 18.3142 16.649 19.1023C16.6608 19.3533 16.7645 19.4207 16.9958 19.419C17.9972 19.4115 18.9988 19.41 20.0002 19.4188C20.278 19.4213 20.3889 19.3055 20.3745 19.0379C20.3671 18.9006 20.3722 18.7626 20.3739 18.6249C20.3762 18.4305 20.2971 18.3134 20.0199 18.3148ZM36.0288 18.312C35.465 18.3099 34.9003 18.327 34.3378 18.299C33.9811 18.2812 33.8566 18.4178 33.8992 18.7541C33.9086 18.8281 33.9085 18.9051 33.8998 18.9793C33.862 19.3018 33.9919 19.4258 34.3246 19.4194C35.1512 19.4034 35.9783 19.4171 36.8052 19.4181C37.6235 19.419 37.6177 19.419 37.5639 18.6059C37.5504 18.4004 37.4743 18.3112 37.2693 18.3134C36.881 18.3176 36.4926 18.313 36.0288 18.312Z" fill="white"/>
<path d="M52.3269 15.763C52.5195 16.1187 52.6939 16.4527 52.8778 16.7814C52.986 16.975 52.9907 17.1599 52.8812 17.3522C52.0672 18.7814 51.2527 20.2104 50.443 21.642C50.3435 21.818 50.2112 21.8738 50.013 21.873C48.2294 21.8656 46.4458 21.8644 44.6621 21.8691C44.4361 21.8697 44.292 21.7927 44.1724 21.5973C43.3199 20.2046 42.5327 18.7752 41.7492 17.3433C41.6397 17.1433 41.6483 16.9793 41.7527 16.7815C42.4916 15.3822 43.2726 14.0066 44.062 12.6354C44.2467 12.3145 44.4735 12.1649 44.8749 12.1716C46.5325 12.1994 48.1909 12.1915 49.8488 12.1817C50.1454 12.1799 50.3363 12.2626 50.486 12.5317C51.0844 13.6066 51.7021 14.6709 52.3269 15.763ZM50.9165 16.5957C50.604 16.0237 50.3073 15.4423 49.9752 14.8818C49.5018 14.0826 48.821 13.61 47.8545 13.6265C47.6546 13.63 47.4543 13.5973 47.2539 13.5905C46.1757 13.554 45.2475 13.8059 44.6821 14.8455C44.371 15.4176 44.0218 15.9687 43.7336 16.5548C43.6129 16.8004 43.5984 17.0272 43.7025 17.2753C44.048 18.0988 44.4587 18.8866 44.9823 19.6117C45.2572 19.9924 45.6224 20.2433 46.0938 20.322C46.8791 20.4532 47.6649 20.4447 48.4511 20.3299C49.0334 20.2449 49.4862 19.9559 49.7848 19.4495C50.2239 18.7047 50.6696 17.963 50.967 17.144C51.0322 16.9642 51.0492 16.8069 50.9165 16.5957Z" fill="white"/>
<path d="M28.2631 55.6517C26.9753 56.5108 25.4513 55.6702 25.051 54.3321C24.9972 54.1524 24.9428 53.971 24.9125 53.7865C24.813 53.18 24.8173 53.1583 24.1792 53.1546C22.9639 53.1476 22.2722 52.2077 22.1048 51.3666C21.8545 50.1088 22.8046 48.9546 24.1495 48.8838C24.8406 48.8474 24.8425 48.8478 24.9912 48.1531C25.2034 47.1615 25.7299 46.4571 26.7666 46.2359C27.6068 46.0566 28.5193 46.4764 28.9483 47.2313C29.1418 47.5717 29.2756 47.9342 29.3093 48.3312C29.3564 48.8856 29.3652 48.8999 29.9176 48.8878C30.7794 48.8688 31.4667 49.1852 31.9149 49.9306C32.7577 51.3322 31.7466 53.109 30.069 53.1921C29.9938 53.1958 29.9175 53.2013 29.8432 53.1927C29.52 53.1555 29.3888 53.2548 29.367 53.6202C29.3178 54.443 28.9903 55.1487 28.2631 55.6517ZM26.5863 52.4802C26.5868 52.9573 26.5793 53.4346 26.5906 53.9115C26.5984 54.2423 26.836 54.4519 27.1497 54.433C27.4879 54.4126 27.7393 54.1509 27.742 53.7761C27.7464 53.1613 27.7419 52.5459 27.7184 51.9316C27.7064 51.6166 27.784 51.4742 28.1379 51.4917C28.7768 51.5232 29.4182 51.5147 30.0583 51.5083C30.3833 51.5051 30.6373 51.3381 30.6725 51.011C30.7084 50.6764 30.4233 50.5502 30.1565 50.4533C30.0884 50.4286 30.0076 50.434 29.9327 50.434C29.33 50.4335 28.7258 50.4093 28.1253 50.4458C27.7709 50.4673 27.6907 50.3353 27.6994 50.0204C27.7144 49.4809 27.7113 48.9405 27.6969 48.4009C27.6868 48.0203 27.4462 47.7864 27.1169 47.7978C26.8036 47.8087 26.5957 48.0363 26.5864 48.4085C26.576 48.8225 26.586 49.2371 26.584 49.6514C26.5797 50.541 26.6683 50.4233 25.7947 50.4307C25.28 50.435 24.7648 50.4209 24.2505 50.437C23.8671 50.449 23.6273 50.6911 23.639 51.0093C23.6509 51.3312 23.8151 51.4615 24.2378 51.4657C24.7023 51.4704 25.167 51.4608 25.6315 51.4647C26.723 51.4739 26.5711 51.3692 26.5863 52.4802Z" fill="white"/>
<path d="M2.67154 17.9209C2.67519 15.6604 2.67849 13.4374 2.68254 11.2144C2.68365 10.5989 2.68466 10.5978 3.31386 10.5979C7.16959 10.5982 11.0253 10.5989 14.881 10.6C15.3872 10.6002 15.416 10.6215 15.4118 11.1302C15.4041 12.059 15.44 12.988 15.3801 13.9168C15.3647 14.1563 15.2954 14.2657 15.0505 14.2511C14.8878 14.2414 14.724 14.2504 14.5607 14.2499C14.0216 14.2482 13.9689 14.1945 13.9655 13.6374C13.9636 13.3235 13.9455 13.0081 13.9688 12.6959C13.9941 12.3581 13.8554 12.2668 13.5329 12.2687C11.7496 12.2792 9.9661 12.2718 8.18268 12.2696C7.0021 12.2682 5.82153 12.2638 4.64096 12.2634C4.1942 12.2633 4.14318 12.3103 4.14212 12.7612C4.13753 14.6954 4.12928 16.6296 4.14323 18.5636C4.14592 18.9359 4.04305 19.0778 3.65536 19.0669C2.55073 19.0359 2.6757 19.1806 2.6712 18.0714C2.67104 18.0337 2.67136 17.9961 2.67154 17.9209Z" fill="white"/>
<path d="M6.45069 24.2443C6.32049 25.4686 5.71854 26.3125 4.59363 26.7471C4.3473 26.8423 4.26581 26.9724 4.28322 27.2198C4.29991 27.457 4.28731 27.6964 4.28523 27.9348C4.28458 28.0098 4.30486 28.1064 4.267 28.1563C3.99149 28.5193 3.5986 28.2726 3.26255 28.3316C3.05338 28.3684 2.89091 28.2472 2.92756 28.0362C3.07076 27.2115 2.66057 26.8003 1.98438 26.3833C1.02495 25.7917 0.630352 24.4837 0.944093 23.4176C1.28098 22.2729 2.07236 21.6104 3.24479 21.4133C3.83018 21.3149 3.90682 21.3893 3.90564 21.9689C3.90359 22.9727 3.90044 23.9766 3.89787 24.9805C3.89749 25.1293 3.89782 25.2782 3.89782 25.431C4.4629 25.3555 4.92826 24.7933 4.99177 24.1496C5.02204 23.8427 4.99767 23.5447 4.81615 23.2833C4.65826 23.0559 4.66493 22.8678 4.91579 22.7163C4.94754 22.6971 4.97346 22.6681 5.00154 22.643C5.55331 22.1508 5.64753 22.1727 6.04793 22.8215C6.31276 23.2505 6.45017 23.7088 6.45069 24.2443Z" fill="white"/>
<path d="M32.2633 43.3201C32.5413 43.3683 32.5201 43.5596 32.5194 43.7345C32.5151 44.791 32.6147 44.6766 31.608 44.6767C28.5201 44.677 25.4323 44.6758 22.3444 44.674C21.8006 44.6737 21.7959 44.6712 21.7987 44.139C21.8034 43.256 21.6577 43.3204 22.6267 43.3197C25.8275 43.3173 29.0283 43.3178 32.2633 43.3201Z" fill="white"/>
<path d="M53.4623 32.8078C53.4715 33.0799 53.4632 33.3189 53.4782 33.5564C53.4991 33.8883 53.3446 34.023 53.0281 33.9814C52.7408 33.9436 52.5826 34.0627 52.4371 34.3171C51.9871 35.1041 50.9827 35.484 50.0883 35.2438C49.1688 34.9968 48.5115 34.1422 48.5053 33.1858C48.4995 32.2965 49.1844 31.4127 50.0814 31.1517C50.9562 30.8971 51.956 31.2762 52.4123 32.1003C52.6028 32.4442 52.7789 32.6733 53.2029 32.5956C53.322 32.5738 53.4194 32.6458 53.4623 32.8078ZM51.0552 32.7339C50.7739 32.5113 50.4762 32.4729 50.2067 32.7269C49.9665 32.9534 49.9119 33.2426 50.0678 33.5504C50.2213 33.8537 50.4842 33.9342 50.7947 33.8795C51.2989 33.7905 51.4376 33.2694 51.0552 32.7339Z" fill="white"/>
<path d="M5.68671 32.8844C5.7673 33.9771 5.17643 34.9369 4.1834 35.2087C3.23856 35.4674 2.32655 35.2447 1.74643 34.2758C1.61313 34.0532 1.4542 33.9526 1.19884 33.9754C0.897608 34.0023 0.753582 33.8654 0.784669 33.5531C0.797037 33.4289 0.784571 33.3023 0.783771 33.1767C0.780347 32.6394 0.779776 32.6281 1.32389 32.5983C1.54504 32.5862 1.61866 32.4559 1.70067 32.2922C2.02482 31.6451 2.53838 31.2293 3.25479 31.103C4.36784 30.9068 5.41023 31.6671 5.68671 32.8844ZM2.98125 32.9731C2.84762 33.3129 2.95256 33.5849 3.23166 33.7939C3.43817 33.9485 3.66431 33.9795 3.89276 33.8315C4.14327 33.6692 4.27919 33.444 4.2419 33.1391C4.20636 32.8484 4.03005 32.6572 3.75864 32.5802C3.42436 32.4854 3.17912 32.6361 2.98125 32.9731Z" fill="white"/>
<path d="M39.2239 6.06147C39.4273 7.31129 39.0925 8.07644 38.175 8.51213C37.1928 8.97851 36.0216 8.58299 35.5459 7.62432C35.0473 6.61928 35.4197 5.47392 36.4122 4.96005C37.3708 4.46373 38.5544 4.82052 39.0775 5.76445C39.1261 5.85198 39.1682 5.94304 39.2239 6.06147ZM37.3682 7.3329C37.45 7.30403 37.5418 7.29009 37.6119 7.24362C37.8631 7.07733 38.0169 6.84969 37.8757 6.54897C37.7455 6.2718 37.5231 6.08828 37.1867 6.16668C36.8865 6.23665 36.7014 6.54908 36.761 6.86027C36.8188 7.16287 37.0334 7.28775 37.3682 7.3329Z" fill="white"/>
<path d="M17.1091 8.70883C15.9792 8.75986 15.1797 8.13015 14.9586 7.04602C14.7688 6.11546 15.3523 5.14356 16.2901 4.82813C17.2029 4.52111 18.2458 4.95889 18.719 5.84774C19.2901 6.92063 18.6001 8.35142 17.3621 8.66011C17.2892 8.67827 17.2144 8.68854 17.1091 8.70883ZM16.6876 7.26285C16.9742 7.39425 17.2037 7.2938 17.3864 7.07067C17.5229 6.90388 17.5551 6.71123 17.4472 6.50917C17.3144 6.26019 17.1114 6.15509 16.8287 6.17588C16.576 6.19447 16.4428 6.35102 16.3723 6.56215C16.2755 6.85188 16.3923 7.07488 16.6876 7.26285Z" fill="white"/>
<path d="M7.9087 19.0585C7.64265 19.072 7.53716 18.9811 7.53652 18.7304C7.53373 17.6401 7.51212 16.5499 7.50514 15.4596C7.50223 15.0046 7.54242 14.9736 8.00143 14.9695C8.88494 14.9615 8.88517 14.9615 8.88642 15.8291C8.88709 16.2931 8.90013 16.7576 8.88217 17.2208C8.87082 17.5136 8.97233 17.622 9.26996 17.616C10.0095 17.601 10.7498 17.6236 11.4892 17.6063C11.8434 17.598 11.9834 17.7184 11.9721 18.0839C11.9382 19.1791 12.1449 19.0537 10.9897 19.0551C9.974 19.0563 8.95829 19.0576 7.9087 19.0585Z" fill="white"/>
<path d="M32.8025 10.8062C33.8721 10.1032 35.1712 10.4777 35.6148 11.5939C35.9243 12.3727 35.5143 13.3746 34.7132 13.7973C33.8843 14.2346 32.9884 14.0058 32.4713 13.2249C31.921 12.3937 32.033 11.5234 32.8025 10.8062ZM34.0883 11.8515C33.8647 11.7982 33.6506 11.7966 33.5475 12.0472C33.4738 12.2262 33.5104 12.4038 33.6876 12.5082C33.8711 12.6164 34.057 12.586 34.2001 12.4281C34.3798 12.2298 34.3382 12.0417 34.0883 11.8515Z" fill="white"/>
<path d="M21.3947 13.7425C20.5445 14.1849 19.8386 14.0857 19.2109 13.4545C18.658 12.8986 18.5283 12.0755 18.8833 11.3755C19.3095 10.5352 20.4447 10.1806 21.2821 10.6263C22.1785 11.1034 22.5106 12.1259 22.0461 12.9928C21.8911 13.2819 21.7069 13.5502 21.3947 13.7425ZM20.644 12.5472C20.9391 12.3185 20.9935 12.1015 20.7923 11.9116C20.6339 11.7621 20.4487 11.715 20.2476 11.833C20.0646 11.9405 19.9751 12.1064 20.0554 12.3042C20.1495 12.5356 20.3342 12.6446 20.644 12.5472Z" fill="white"/>
<path d="M33.8518 48.5603C32.8744 48.3806 32.2259 47.5187 32.3698 46.6273C32.5162 45.7207 33.4437 45.05 34.3632 45.186C35.2287 45.314 35.8921 46.2169 35.7813 47.1159C35.6732 47.9922 34.818 48.6447 33.8518 48.5603ZM34.3849 46.8358C34.3225 46.5833 34.1454 46.5273 33.93 46.6052C33.77 46.6631 33.7097 46.8107 33.7798 46.971C33.8558 47.1445 34.0075 47.191 34.1832 47.1347C34.2971 47.0983 34.3681 47.0145 34.3849 46.8358Z" fill="white"/>
<path d="M19.7876 45.2439C21.0512 44.9127 21.9665 45.9763 21.9823 46.9264C21.9936 47.6063 21.4397 48.3018 20.7499 48.5184C20.0747 48.7304 19.3324 48.484 18.9163 47.9098C18.2064 46.9299 18.5884 45.7236 19.7876 45.2439ZM20.0035 46.6688C19.8969 46.8833 19.917 47.06 20.1726 47.1338C20.3135 47.1745 20.4413 47.1232 20.5285 46.9955C20.6012 46.8893 20.5964 46.7823 20.5149 46.6879C20.3791 46.5307 20.2157 46.5394 20.0035 46.6688Z" fill="white"/>
<path d="M10.1393 6.29095C11.2949 6.29073 12.413 6.30177 13.5307 6.28352C13.8672 6.27803 13.9967 6.3869 13.9411 6.71644C13.9308 6.7776 13.9386 6.84181 13.9379 6.90462C13.9281 7.77795 14.051 7.69429 13.1593 7.69572C11.6394 7.69815 10.1194 7.68579 8.59967 7.69986C8.25295 7.70307 8.14295 7.58897 8.14455 7.2453C8.14898 6.28993 8.13597 6.28991 9.08411 6.29061C9.42327 6.29086 9.76242 6.29086 10.1393 6.29095Z" fill="white"/>
<path d="M24.485 41.1181C26.228 41.1154 27.9357 41.1219 29.6432 41.1048C30.0027 41.1012 30.1306 41.2118 30.1243 41.5764C30.106 42.6284 30.1478 42.4359 29.2511 42.442C27.7444 42.4523 26.2376 42.4435 24.7308 42.4419C24.1626 42.4413 24.1621 42.4403 24.1645 41.8519C24.1651 41.7013 24.1667 41.5506 24.1729 41.4001C24.1802 41.2252 24.2577 41.1144 24.485 41.1181Z" fill="white"/>
<path d="M44.0559 7.69445C42.9384 7.69484 41.8584 7.68634 40.7788 7.70103C40.4599 7.70537 40.3281 7.61499 40.3371 7.27553C40.3682 6.10629 40.1789 6.30233 41.3003 6.29318C42.719 6.2816 44.138 6.3004 45.5566 6.28404C45.8895 6.28021 45.9842 6.37796 45.9765 6.71082C45.9538 7.69233 45.9682 7.69273 44.9976 7.69398C44.6962 7.69437 44.3949 7.69429 44.0559 7.69445Z" fill="white"/>
<path d="M5.62458 13.5261C6.6566 13.5256 6.52861 13.4246 6.53445 14.3743C6.54307 15.7773 6.53638 17.1805 6.53457 18.5836C6.53397 19.0502 6.52055 19.0657 6.04347 19.0585C5.05436 19.0437 5.15301 19.1842 5.14909 18.183C5.14359 16.7799 5.15445 15.3766 5.13732 13.9737C5.13311 13.629 5.24324 13.4797 5.62458 13.5261Z" fill="white"/>
<path d="M54.2924 25.784C52.6137 25.7838 50.9712 25.7753 49.3289 25.7897C48.9848 25.7927 48.8657 25.6843 48.873 25.3391C48.8957 24.2737 48.8069 24.4643 49.7548 24.4551C51.2716 24.4403 52.7885 24.4412 54.3053 24.4263C54.5769 24.4237 54.7022 24.5229 54.6905 24.7985C54.6815 25.0113 54.6796 25.2251 54.6895 25.4377C54.7017 25.6994 54.5819 25.8071 54.2924 25.784Z" fill="white"/>
<path d="M51.7414 26.9616C52.8504 26.9706 52.6965 26.8253 52.7238 27.9403C52.7324 28.2903 52.5818 28.4071 52.253 28.3954C50.8516 28.3455 49.4497 28.3324 48.0477 28.3808C47.8685 28.387 47.7593 28.3158 47.751 28.1253C47.75 28.1003 47.7479 28.0753 47.7482 28.0503C47.7644 26.7539 47.6097 26.9789 48.7734 26.9643C49.7501 26.9521 50.7272 26.9617 51.7414 26.9616Z" fill="white"/>
<path d="M6.1446 47.2365C6.4834 47.2357 6.78467 47.2385 7.08579 47.233C7.32718 47.2286 7.42936 47.3481 7.41912 47.5803C7.40586 47.8809 7.38699 48.1815 7.38125 48.4823C7.37751 48.6779 7.25737 48.7017 7.10524 48.7015C5.9757 48.7003 4.84616 48.6985 3.71663 48.7011C3.50831 48.7015 3.41869 48.6032 3.42294 48.4031C3.42321 48.3906 3.42183 48.3781 3.42198 48.3655C3.43681 47.0687 3.23817 47.26 4.48801 47.2413C5.02758 47.2333 5.56733 47.2378 6.1446 47.2365Z" fill="white"/>
<path d="M47.8257 47.2396C48.7156 47.2387 49.5682 47.2459 50.4206 47.2326C50.7277 47.2278 50.8387 47.3421 50.8441 47.6501C50.8626 48.7007 50.8713 48.7009 49.8333 48.7016C48.9934 48.7022 48.1532 48.6927 47.3135 48.7068C47.0115 48.7119 46.8631 48.6203 46.8978 48.3013C46.9112 48.1774 46.9006 48.0508 46.9004 47.9254C46.8994 47.2412 46.8994 47.2412 47.6004 47.2398C47.663 47.2396 47.7257 47.2396 47.8257 47.2396Z" fill="white"/>
<path d="M41.7192 48.7032C41.3436 48.7022 41.0055 48.694 40.6678 48.7027C40.4334 48.7087 40.3211 48.6243 40.3315 48.3765C40.343 48.1017 40.3412 47.8254 40.3277 47.5507C40.3164 47.3201 40.4197 47.2372 40.6379 47.2375C41.7393 47.239 42.8407 47.2381 43.9421 47.2321C44.1862 47.2307 44.2638 47.3507 44.2784 47.5775C44.3506 48.7036 44.3542 48.7035 43.2212 48.7036C42.7331 48.7037 42.245 48.7034 41.7192 48.7032Z" fill="white"/>
<path d="M13.5873 47.2374C13.8431 47.2319 13.9381 47.3353 13.9321 47.5588C13.8951 48.9586 14.1509 48.6748 12.8701 48.6987C12.0552 48.7139 11.2397 48.6912 10.4247 48.7047C10.1308 48.7096 10.0115 48.6096 10.0356 48.3127C10.0538 48.0885 10.0531 47.8604 10.035 47.6361C10.0109 47.3364 10.1441 47.2378 10.4291 47.2395C11.47 47.2457 12.5109 47.2389 13.5873 47.2374Z" fill="white"/>
<path d="M15.3405 52.0093C15.2904 52.0092 15.2779 52.0092 15.2653 52.0092C14.1705 52.0072 14.1237 51.9481 14.258 50.8408C14.2816 50.6466 14.3796 50.5747 14.549 50.5731C15.3391 50.5655 16.1292 50.5622 16.9193 50.5595C17.1156 50.5588 17.2041 50.6597 17.2287 50.858C17.3644 51.9523 17.3166 52.0118 16.2435 52.0106C15.955 52.0102 15.6665 52.0097 15.3405 52.0093Z" fill="white"/>
<path d="M39.8146 52.0013C39.0268 52.0072 38.2745 51.9989 37.5226 52.0141C37.224 52.0201 37.0882 51.9336 37.0968 51.6115C37.1276 50.4544 36.9062 50.5718 38.1278 50.5594C38.6417 50.5542 39.1558 50.5631 39.6697 50.5559C39.9179 50.5524 40.0448 50.6342 40.0232 50.9069C40.0034 51.1562 40.0183 51.408 40.0116 51.6586C40.0081 51.7923 40.0326 51.9457 39.8146 52.0013Z" fill="white"/>
<path d="M40.5146 11.9439C40.4973 12.1202 40.4329 12.2133 40.2789 12.2197C40.2539 12.2207 40.2284 12.2265 40.2041 12.2231C39.8621 12.1753 39.3827 12.4152 39.2058 12.1519C38.9847 11.8226 39.0476 11.2976 39.1697 10.9181C39.32 10.4509 39.8207 10.766 40.1596 10.6976C40.3706 10.6551 40.5249 10.7615 40.5232 11.0091C40.5211 11.309 40.5189 11.6089 40.5146 11.9439Z" fill="white"/>
<path d="M10.3887 21.3778C10.4293 21.7391 10.2891 21.8525 9.9608 21.8538C8.98922 21.8578 8.98927 21.8692 9.01539 20.8909C9.03088 20.3106 9.03091 20.3072 9.59229 20.3115C10.4925 20.3185 10.3777 20.1876 10.3887 21.1159C10.3896 21.1912 10.3888 21.2665 10.3887 21.3778Z" fill="white"/>
<path d="M6.84965 6.48189C6.85002 6.80199 6.84039 7.09034 6.84562 7.37842C6.84972 7.6041 6.74342 7.67937 6.52735 7.69499C5.47925 7.77074 5.34244 7.6325 5.4571 6.58308C5.47126 6.45353 5.48399 6.30998 5.64681 6.30574C6.00916 6.29629 6.37214 6.3043 6.73463 6.31394C6.80013 6.31569 6.83059 6.38628 6.84965 6.48189Z" fill="white"/>
<path d="M47.2789 7.42635C47.2761 7.12864 47.281 6.86658 47.2731 6.60492C47.2664 6.38589 47.3552 6.27534 47.5809 6.29107C47.6057 6.2928 47.6307 6.29092 47.6557 6.29022C48.7238 6.26045 48.8098 6.35782 48.6678 7.42525C48.6521 7.54292 48.6335 7.67115 48.4961 7.67607C48.148 7.68857 47.7989 7.68467 47.4506 7.67441C47.3334 7.67096 47.2905 7.57104 47.2789 7.42635Z" fill="white"/>
<path d="M48.8778 40.291C49.1477 40.1403 49.3943 40.1136 49.649 40.256C50.0587 40.485 50.1989 40.9037 49.9802 41.2599C49.7513 41.6328 49.2698 41.7461 48.9031 41.5135C48.5258 41.2742 48.4464 40.8129 48.7211 40.4388C48.7575 40.3894 48.8092 40.3513 48.8778 40.291Z" fill="white"/>
<path d="M5.59583 40.577C5.78484 41.0549 5.61663 41.4446 5.18326 41.5938C4.76125 41.7392 4.32199 41.5101 4.20303 41.0827C4.09595 40.698 4.36883 40.2603 4.78438 40.1732C5.13904 40.0989 5.38334 40.282 5.59583 40.577Z" fill="white"/>
<path d="M52.61 40.2488C52.902 40.4625 53.0927 40.7055 53.0137 41.0606C52.9516 41.3397 52.7638 41.5273 52.4875 41.5977C52.1558 41.6821 51.8635 41.6113 51.657 41.3129C51.4594 41.0276 51.481 40.7367 51.6819 40.4739C51.9133 40.1712 52.2225 40.082 52.61 40.2488Z" fill="white"/>
<path d="M1.99422 41.6243C1.60244 41.6099 1.35193 41.4318 1.221 41.0942C1.12398 40.844 1.20737 40.62 1.37197 40.4344C1.60138 40.1757 1.8912 40.0896 2.22041 40.2278C2.54507 40.364 2.71583 40.6247 2.68203 40.9686C2.64475 41.3479 2.41097 41.5752 1.99422 41.6243Z" fill="white"/>
<path d="M30.8946 15.2516C31.2522 15.7125 31.2351 16.077 30.8658 16.3464C30.518 16.6 30.0981 16.5155 29.8603 16.1428C29.6688 15.8428 29.7315 15.5652 29.956 15.319C30.2032 15.0478 30.4859 15.0281 30.8946 15.2516Z" fill="white"/>
<path d="M24.4481 15.4488C24.66 15.7982 24.5647 16.0875 24.305 16.3115C24.0552 16.5269 23.7605 16.5521 23.4718 16.3569C23.2044 16.1762 23.0804 15.926 23.173 15.6115C23.267 15.2922 23.4942 15.1074 23.8348 15.0922C24.0989 15.0805 24.2819 15.2279 24.4481 15.4488Z" fill="white"/>
<path d="M52.6982 23.3239C52.5059 22.9733 52.577 22.623 52.6107 22.2805C52.6347 22.0368 52.8485 22.0682 53.0201 22.0637C53.6106 22.0483 53.6349 22.0727 53.6342 22.6551C53.6334 23.417 53.6137 23.4319 52.6982 23.3239Z" fill="white"/>
<path d="M35.7368 51.9753C35.6159 51.9807 35.5278 51.9764 35.4411 51.9858C35.1109 52.0214 34.9825 51.8692 35.0106 51.5484C35.0236 51.3995 35.0263 51.2471 35.01 51.0989C34.9696 50.7326 35.0986 50.5783 35.4903 50.6002C36.0006 50.6287 36.0089 50.6115 36.0105 51.132C36.011 51.3194 36.0067 51.5069 36.0076 51.6944C36.0083 51.8569 35.9371 51.9544 35.7368 51.9753Z" fill="white"/>
<path d="M13.16 51.0918C13.1607 51.2402 13.1485 51.3547 13.164 51.4654C13.2159 51.8363 13.0808 51.971 12.6907 51.9634C12.1514 51.953 12.1508 51.9846 12.1481 51.4465C12.1477 51.3714 12.1475 51.2962 12.1475 51.2211C12.147 50.6345 12.4178 50.4394 12.9833 50.6158C13.2255 50.6913 13.1342 50.8961 13.16 51.0918Z" fill="white"/>
<path d="M41.9621 51.9454C41.1103 52.0427 41.1021 52.0356 41.1023 51.2396C41.1025 50.5872 41.1901 50.5129 41.8405 50.6066C41.9288 50.6193 42.042 50.6223 42.0423 50.7294C42.0437 51.1307 42.2027 51.5401 41.9621 51.9454Z" fill="white"/>
<path d="M19.0056 51.9722C18.9102 51.977 18.847 51.9742 18.7848 51.9807C18.4422 52.016 18.2542 51.9085 18.3176 51.5204C18.3436 51.3614 18.3386 51.1923 18.3175 51.0318C18.2748 50.7075 18.3844 50.5851 18.727 50.5937C19.2719 50.6073 19.2728 50.5852 19.2732 51.117C19.2733 51.3053 19.2701 51.4937 19.2698 51.6821C19.2695 51.8406 19.2088 51.9487 19.0056 51.9722Z" fill="white"/>
<path d="M52.402 10.9233C52.6156 10.9751 52.9024 10.8481 52.9708 11.0714C53.0719 11.4017 53.1118 11.7939 52.9466 12.0965C52.8081 12.3502 52.4653 12.2072 52.2145 12.1991C52.0038 12.1922 52.0314 11.9979 52.0274 11.8516C52.0223 11.664 52.0353 11.4756 52.0227 11.2887C52.0053 11.0311 52.1205 10.9163 52.402 10.9233Z" fill="white"/>
<path d="M0.193473 15.8302C0.0244893 15.6552 -0.0687626 14.8266 0.0606975 14.6973C0.275135 14.4829 0.558641 14.5982 0.810422 14.6052C1.00701 14.6107 1.01353 14.7944 1.0185 14.9474C1.02092 15.0221 1.01336 15.0974 1.00613 15.172C0.939635 15.8586 0.939368 15.8586 0.193473 15.8302Z" fill="white"/>
<path d="M32.2196 53.7339C32.6277 53.7631 32.5427 54.0435 32.5202 54.2634C32.4953 54.5067 32.2859 54.4738 32.1151 54.4781C31.8406 54.485 31.7986 54.3013 31.7875 54.0838C31.7727 53.7918 31.9451 53.7245 32.2196 53.7339Z" fill="white"/>
<path d="M22.4431 54.0375C22.4864 54.4246 22.2896 54.4929 21.9885 54.4745C21.6493 54.4538 21.7228 54.2196 21.7179 54.0128C21.7128 53.8047 21.8413 53.7656 22.0078 53.7587C22.2049 53.7505 22.4317 53.6856 22.4431 54.0375Z" fill="white"/>
<path d="M25.6073 25.4836C24.9261 25.5374 24.5807 24.9485 24.5499 24.4563C24.5169 23.9276 25.0148 23.4275 25.5841 23.4193C26.6112 23.4046 27.6388 23.4048 28.6659 23.4183C29.275 23.4263 29.6944 23.8643 29.6886 24.441C29.6825 25.0453 29.2551 25.4792 28.6494 25.482C27.6471 25.4866 26.6449 25.4836 25.6073 25.4836Z" fill="white"/>
<path d="M28.3705 32.2334C28.2287 32.8705 27.8668 33.2508 27.3512 33.3326C26.8304 33.4153 26.4053 33.2166 26.1427 32.7676C25.8053 32.191 25.9334 31.585 26.4709 31.2152C26.9841 30.862 27.7029 30.9783 28.0851 31.4805C28.2473 31.6936 28.3628 31.9282 28.3705 32.2334Z" fill="white"/>
<path d="M26.0255 28.6855C25.8637 27.9256 26.2521 27.2997 26.9499 27.1527C27.56 27.0242 28.1742 27.4573 28.3363 28.1304C28.4402 28.5618 28.1627 29.1032 27.712 29.3482C27.2499 29.5994 26.6536 29.5093 26.3012 29.1193C26.1941 29.0007 26.1224 28.8501 26.0255 28.6855Z" fill="white"/>
<path d="M27.1024 34.7975C27.3818 34.8219 27.5557 34.9449 27.6204 35.1938C27.6586 35.3405 27.6094 35.4678 27.4968 35.5662C27.3418 35.7016 27.1672 35.7438 26.9746 35.6524C26.803 35.571 26.6966 35.4448 26.6965 35.2431C26.6965 34.9869 26.8347 34.8527 27.1024 34.7975Z" fill="white"/>
<path d="M26.0153 4.5782C26.6353 3.68135 27.7262 3.68244 28.2243 4.55524C28.5318 5.09411 28.457 5.62964 28.0142 6.06014C27.5937 6.46894 26.9679 6.54471 26.492 6.24443C26.0032 5.93601 25.7563 5.3017 25.922 4.77363C25.9405 4.71447 25.9741 4.66 26.0153 4.5782Z" fill="white"/>
<path d="M47.4304 14.7479C48.7654 14.9081 49.6663 15.8813 49.6472 17.1077C49.6308 18.164 48.7748 19.1537 47.7048 19.3534C46.6812 19.5445 45.594 18.9562 45.1814 17.9881C44.496 16.3798 45.6025 14.7607 47.4304 14.7479ZM47.9888 17.5164C48.2133 17.2041 48.2287 16.8862 47.9801 16.5862C47.7529 16.312 47.4468 16.2093 47.1027 16.305C46.7717 16.397 46.5652 16.6267 46.5349 16.9764C46.5054 17.3161 46.6378 17.5903 46.9395 17.7627C47.2752 17.9547 47.59 17.8882 47.9888 17.5164Z" fill="white"/>
</svg>
