<svg width="57" height="56" viewBox="0 0 57 56" fill="none" xmlns="http://www.w3.org/2000/svg">
<path d="M9.52807 22.1887C9.02357 22.6276 8.54896 22.5817 8.00026 22.3041C6.02254 21.3035 4.02323 20.3457 2.03949 19.3569C1.34573 19.0111 1.28588 18.4237 1.85902 17.8991C1.9486 17.8172 2.03229 17.7248 2.13326 17.6598C3.03305 17.0811 3.57487 16.3372 3.30209 15.2002C3.28201 15.1165 3.2917 15.0086 3.32814 14.9311C3.66789 14.208 3.38635 13.656 2.87705 13.1424C2.67594 12.9396 2.51382 12.6934 2.35792 12.4516C2.10677 12.0619 2.14509 11.7199 2.45044 11.4777C2.80007 11.2003 3.10757 11.3288 3.37723 11.6044C3.65314 11.8865 3.91823 12.1799 4.17577 12.4789C4.39872 12.7377 4.60202 12.8448 4.95484 12.6445C5.62856 12.2621 6.36857 12.1064 7.14906 12.2073C7.22643 12.2173 7.30027 12.2164 7.36754 12.1487C7.43926 11.9391 7.29312 11.7767 7.21221 11.6066C6.8273 10.7977 6.44861 9.98491 6.03216 9.19216C5.63492 8.43597 5.81178 7.73757 6.87777 7.85406C7.52609 7.92491 8.17871 7.9682 8.82155 8.07231C9.1305 8.12234 9.24031 8.01628 9.29034 7.75062C9.45365 6.88347 9.92296 6.21225 10.6418 5.72162C10.9311 5.52418 10.9767 5.31677 10.8838 4.99023C10.668 4.23182 10.4994 3.46013 10.2995 2.697C10.2223 2.40226 10.1837 2.12397 10.437 1.89714C10.7108 1.65204 11.026 1.677 11.3347 1.80754C12.1876 2.16813 13.0324 2.54807 13.8871 2.90438C14.9099 3.33081 15.9305 3.76568 16.9698 4.14848C17.6083 4.3836 17.95 4.81084 18.1156 5.44558C18.7357 7.82289 19.2849 10.2195 20.0291 12.5634C20.3322 13.5179 20.6623 14.4647 20.932 15.4285C21.0608 15.8886 21.2777 15.9927 21.7098 15.8622C22.1015 15.7439 22.5108 15.6796 22.923 15.6953C23.2394 15.7074 23.3752 15.572 23.3461 15.2623C23.2737 14.4925 23.2016 13.7227 23.1272 12.9531C22.9564 11.1869 22.6725 9.42831 22.6331 7.6533C22.5771 5.12823 24.1524 3.4486 26.6598 3.20382C28.1383 3.05949 29.6094 2.8394 31.0839 2.65457C31.2884 2.62894 31.4533 2.52324 31.6132 2.40581C32.7489 1.57145 34.0124 1.32563 35.3689 1.65986C36.3539 1.90253 37.2978 1.62851 38.2561 1.5269C39.0104 1.44694 39.7588 1.30711 40.5139 1.24016C42.8335 1.03451 44.6012 2.42271 44.8794 4.78016C44.9832 5.66006 45.3267 6.11541 46.1312 6.45081C48.2327 7.32694 50.2845 8.31911 52.3328 9.31526C53.8602 10.058 54.8932 11.1928 55.1664 12.9167C55.3258 13.9226 55.115 14.8773 54.7179 15.8017C53.717 18.1321 52.596 20.4068 51.5222 22.7033C51.2052 23.3812 51.1919 23.3825 51.7641 23.8761C54.3081 26.0707 55.9164 28.8199 56.4988 32.1214C56.9205 34.5118 56.6873 36.877 55.7731 39.1398C55.5483 39.6961 55.6616 40.2467 55.6086 40.795C55.4866 42.0553 55.0248 43.1538 54.2107 44.0937C51.7256 46.9626 49.2186 49.8125 46.7214 52.6708C46.1924 53.2763 45.5751 53.7912 44.9384 54.377C45.148 54.4385 45.3053 54.4739 45.4545 54.5306C45.8019 54.6628 46.0143 54.9192 45.9878 55.2927C45.9601 55.6844 45.6785 55.8624 45.3131 55.9156C45.2086 55.9308 45.1009 55.9261 44.9947 55.9261C32.5543 55.921 20.1139 55.9155 7.67345 55.9092C7.52172 55.9092 7.36989 55.9014 7.21829 55.8936C6.86261 55.8753 6.60385 55.7084 6.50456 55.3621C6.40841 55.0266 6.55226 54.7719 6.83726 54.587C6.89856 54.5473 6.9519 54.4952 7.00048 54.4557C6.98284 54.2402 6.81905 54.1589 6.70624 54.0441C5.06683 52.3759 3.42099 50.714 1.7863 49.0412C1.21491 48.4565 1.22357 48.2883 1.78818 47.7242C3.53941 45.9745 5.29396 44.2281 7.04624 42.4795C7.16246 42.3635 7.27051 42.2393 7.42023 42.0782C6.56176 41.4914 5.8268 40.8167 5.07387 40.1633C4.05297 39.2772 3.0213 38.4015 2.09826 37.411C0.814442 36.0333 0.273667 34.4227 0.656621 32.5511C0.812153 31.791 1.22785 31.1499 1.68074 30.5356C3.06349 28.6599 4.62245 26.9435 6.31439 25.341C7.59209 24.1308 9.10981 23.7532 10.8063 23.9252C11.5157 23.9972 12.2148 24.1344 12.9082 24.3108C14.0257 24.5949 14.9833 25.1512 15.827 25.9237C16.3758 26.4262 16.9453 26.9074 17.4744 27.4299C17.7774 27.7291 18.0139 27.7791 18.2815 27.4194C18.3883 27.2758 18.5612 27.1854 18.6459 26.9534C17.9779 26.5016 17.3177 26.0213 16.6253 25.5933C14.7782 24.4515 12.9097 23.3444 11.0667 22.1962C10.542 21.8692 10.0645 21.9504 9.52807 22.1887ZM48.4827 48.4389C49.3797 47.4085 50.2863 46.3864 51.1707 45.3454C51.9661 44.4092 52.8644 43.5585 53.5372 42.52C54.1304 41.6045 54.2744 40.6054 54.0511 39.552C53.9133 38.9017 53.3945 38.5071 52.7317 38.5325C51.9097 38.564 51.2398 38.9551 50.6976 39.5318C49.086 41.2457 47.4848 42.9698 45.9066 44.7144C44.823 45.9125 43.7273 47.0866 42.2799 47.8586C42.007 48.0042 41.8937 48.2012 41.9059 48.5162C41.9265 49.0468 41.919 49.5793 41.9022 50.1104C41.8908 50.4729 41.7157 50.7511 41.3661 50.8848C41.1086 50.9833 40.8891 50.8916 40.7101 50.6965C40.5366 50.5074 40.4767 50.2786 40.4776 50.0254C40.4799 49.3421 40.4792 48.6586 40.473 47.9753C40.4716 47.8302 40.5072 47.6075 40.3206 47.5915C39.8994 47.5555 39.4698 47.5459 39.0502 47.589C38.7776 47.617 38.7283 47.9283 38.6124 48.133C37.725 49.6994 36.3882 50.4855 34.5852 50.484C30.6063 50.4806 26.6275 50.4812 22.6486 50.4796C22.512 50.4796 22.3727 50.49 22.2394 50.4676C21.8368 50.4 21.5657 50.1742 21.5335 49.7535C21.5016 49.3368 21.7531 49.1063 22.1337 49.0164C22.3082 48.9752 22.4939 48.9672 22.6745 48.9673C26.6685 48.9682 30.6626 48.9638 34.6565 48.9806C35.9943 48.9862 36.9008 48.3659 37.4737 47.1934C37.8853 46.3509 38.0941 45.448 38.1908 44.5262C38.3311 43.1878 37.9061 42.6307 36.5903 42.3308C36.4289 42.294 36.2611 42.2825 36.0955 42.2671C34.6787 42.1354 33.3877 42.5095 32.1929 43.2527C31.1791 43.8833 30.0814 44.1579 28.8907 44.0644C28.573 44.0394 28.2547 44.0111 27.9364 44.0062C26.1327 43.978 24.585 43.3822 23.3715 42.0023C22.7267 41.2691 21.9012 40.7964 21.0092 40.4183C19.6317 39.8344 18.1865 39.7769 16.7205 39.7773C13.9234 39.7779 11.4431 40.6485 9.27691 42.4088C8.76435 42.8253 8.24698 43.2449 7.82481 43.7802C7.92159 43.8993 7.99006 43.999 8.07351 44.0841C11.328 47.4003 14.586 50.713 17.8359 54.0336C18.1474 54.3518 18.4931 54.4661 18.9316 54.4655C25.8415 54.4562 32.7513 54.448 39.6611 54.4626C41.978 54.4676 43.8838 53.5845 45.4312 51.9067C46.4602 50.7911 47.4382 49.6283 48.4827 48.4389ZM52.0304 18.3586C52.5242 17.249 53.0295 16.1443 53.5078 15.0281C53.84 14.253 53.9276 13.4472 53.6694 12.627C53.3361 11.5686 52.5287 10.9833 51.5811 10.5321C46.6459 8.18258 41.6379 5.99143 36.6808 3.68957C36.1578 3.44673 35.6322 3.21269 35.0699 3.06505C33.3039 2.60142 31.8661 3.48524 31.509 5.27176C30.8549 8.54336 30.3338 11.8386 29.7664 15.1255C29.6499 15.8009 29.6574 15.8042 30.3081 16.0748C31.4453 16.5478 32.2391 17.3597 32.7234 18.4885C33.3852 20.0312 33.3494 21.6524 33.2889 23.2798C33.2719 23.7365 33.1242 24.1878 33.1736 24.6619C33.4361 24.6307 33.5274 24.4548 33.6517 24.3324C34.6778 23.3216 35.8291 22.4885 37.1347 21.8769C38.1194 21.4156 38.1143 21.4248 37.6876 20.3988C37.3735 19.6436 37.0104 18.9041 36.8898 18.0808C36.7392 17.0519 37.6187 16.07 38.5975 16.2096C39.3225 16.3129 39.858 16.7263 40.1874 17.3733C40.4932 17.9739 40.4761 17.9826 41.0822 17.6973C41.0959 17.6909 41.1096 17.6843 41.1234 17.678C41.8754 17.3383 42.711 17.5176 43.1377 18.11C43.5748 18.717 43.4927 19.4613 42.9245 20.1076C42.8319 20.213 42.6666 20.2844 42.7235 20.5457C45.332 20.5007 47.7477 21.268 50.0549 22.5416C50.7195 21.1323 51.3593 19.7758 52.0304 18.3586ZM31.4384 30.845C31.1471 32.3095 30.9912 33.7897 31.0703 35.2802C31.1754 37.2612 31.7868 39.0866 32.9043 40.7342C32.9803 40.8463 33.0614 41.0165 33.199 40.9933C33.7261 40.9046 34.2716 40.901 34.7751 40.7419C34.7766 40.5494 34.6748 40.469 34.6045 40.3746C32.3887 37.3959 31.9728 34.0921 33.1333 30.6556C35.4255 23.868 44.001 21.4749 49.5593 26.006C50.2177 26.5427 50.8412 27.1298 51.3165 27.8435C51.6761 28.3834 51.632 28.5646 51.2395 29.0605C50.9692 29.402 50.6408 29.6549 50.2717 29.8728C49.5562 30.2953 49.5587 30.2993 49.8934 31.0792C49.9294 31.1629 49.9647 31.247 49.9968 31.3322C50.439 32.5072 50.4368 32.4941 51.6814 32.2973C52.0531 32.2386 52.0989 32.0769 51.9945 31.7701C51.9167 31.5415 51.8044 31.3205 51.805 31.0702C51.8057 30.7514 51.9281 30.4994 52.243 30.3973C52.5373 30.3019 52.7842 30.4129 52.9591 30.6597C53.0459 30.7822 53.1281 30.9181 53.1702 31.0604C53.5382 32.3053 53.7383 33.5665 53.6105 34.8742C53.5399 35.5965 53.4154 36.31 53.2979 37.0365C53.6619 37.1842 54.0097 37.2896 54.319 37.4862C54.6983 37.7275 54.7897 37.6775 54.8915 37.2397C55.2635 35.64 55.3454 34.0308 55.0658 32.4077C54.594 29.6698 53.3949 27.2944 51.3533 25.4146C48.4002 22.6953 44.9135 21.7064 40.9217 22.2801C36.085 22.9752 32.3335 27.0732 31.4384 30.845ZM4.45437 29.381C3.76159 30.2828 2.99273 31.1272 2.42151 32.1203C2.11913 32.646 1.94679 33.1961 1.96425 33.8091C1.99288 34.8148 2.49031 35.6037 3.12907 36.3139C4.20728 37.5128 5.41753 38.576 6.64234 39.6203C7.16461 40.0656 7.75925 40.4058 8.40126 40.6558C8.58487 40.7273 8.78566 40.8288 8.97218 40.7263C9.60712 40.3772 10.3384 40.1353 10.7946 39.5536C11.9839 38.037 13.1313 36.4844 14.1405 34.8413C14.8714 33.6513 14.7454 32.733 13.8376 31.6744C12.9571 30.6477 12.0346 29.6588 11.0461 28.7372C10.2375 27.9833 9.46325 27.1792 8.47861 26.6387C7.81274 26.2731 7.47962 26.3101 6.90465 26.7889C6.00117 27.5412 5.28812 28.4741 4.45437 29.381ZM29.8181 37.5904C29.8032 37.3791 29.7972 37.1668 29.772 36.9568C29.6053 35.5662 29.5421 34.166 29.7059 32.7795C29.8051 31.94 29.526 31.3731 28.8966 30.8989C28.4508 30.563 27.9511 30.348 27.4057 30.2562C25.7623 29.9794 24.1131 29.9506 22.4714 30.2483C21.0014 30.5149 19.391 31.6464 19.2437 33.4399C19.1818 34.1933 19.199 34.9577 19.2407 35.7137C19.2874 36.5594 19.3581 37.4082 19.8404 38.1586C20.0069 38.4176 20.1874 38.5897 20.4992 38.653C21.4015 38.8363 22.2377 39.1837 22.9859 39.7295C23.1838 39.8739 23.3955 40.0062 23.645 40.0179C24.9797 40.0806 26.3153 40.1553 27.6056 39.6772C28.615 39.3031 29.4339 38.7294 29.8181 37.5904ZM26.8785 17.1223C25.5124 17.1287 24.1468 17.107 22.7811 17.1996C20.9149 17.3261 19.7101 18.4206 19.4684 20.272C19.3564 21.1298 19.346 21.9886 19.3596 22.856C19.3772 23.9784 19.7515 24.9215 20.4273 25.7873C20.6536 26.0771 20.896 26.1973 21.2687 26.2111C22.7022 26.2642 24.0881 26.4856 25.1458 27.6005C25.2791 27.741 25.402 27.7283 25.5374 27.6027C26.4756 26.7325 27.6379 26.5144 28.8594 26.4445C30.2922 26.3625 31.38 25.4676 31.7266 24.0597C32.0513 22.7407 31.9708 21.4064 31.7456 20.0821C31.4683 18.4518 30.627 17.5847 29.0078 17.27C28.3379 17.1398 27.6503 17.1334 26.8785 17.1223ZM29.9931 4.21574C28.9097 4.34991 27.8276 4.49589 26.7426 4.61558C24.9491 4.81342 23.9716 5.92395 24.0267 7.73651C24.071 9.19254 24.3072 10.6307 24.4428 12.0783C24.5403 13.1191 24.6463 14.1591 24.7371 15.2005C24.7626 15.4921 24.8713 15.6307 25.1858 15.6321C26.0201 15.6357 26.8546 15.6554 27.6882 15.6893C28.0583 15.7044 28.2381 15.5726 28.3004 15.1944C28.5074 13.9392 28.7322 12.6869 28.9656 11.4364C29.3966 9.1282 29.677 6.79205 30.2523 4.51062C30.2914 4.35569 30.3077 4.19246 29.9931 4.21574ZM16.2413 19.8906C15.3844 18.5483 14.5281 17.2056 13.67 15.8639C13.5465 15.6707 13.4214 15.4827 13.1475 15.4833C12.2675 15.4853 11.3875 15.4827 10.5076 15.4757C10.2742 15.4738 10.1768 15.5802 10.1823 15.8062C10.2084 16.8789 9.70001 17.6906 8.9175 18.361C8.75908 18.4968 8.68054 18.6337 8.76829 18.8328C8.99447 19.3462 9.22186 19.859 9.45112 20.371C9.5174 20.519 9.6094 20.6472 9.79836 20.5702C10.5627 20.2587 11.1752 20.6126 11.7959 20.9955C13.6935 22.1662 15.5979 23.3256 17.5025 24.4848C17.6637 24.5829 17.8096 24.736 18.0476 24.7085C18.0623 24.6173 18.0943 24.5284 18.0877 24.4425C18.0152 23.495 17.9895 22.5468 17.3807 21.7237C16.9674 21.1648 16.642 20.5409 16.2413 19.8906ZM13.2481 11.9296C12.9942 12.2202 13.1581 12.5692 13.1151 12.8892C13.0638 13.2708 13.2179 13.5294 13.5779 13.6769C13.9736 13.8391 14.238 14.146 14.4627 14.5002C15.3165 15.8462 16.1731 17.1905 17.0366 18.5304C17.3209 18.9715 17.5792 19.4343 17.9502 19.8262C18.1208 19.6798 18.1288 19.5071 18.1628 19.3491C18.364 18.4129 18.8275 17.6216 19.5287 16.982C19.7966 16.7376 19.842 16.5073 19.7359 16.1797C19.3387 14.9527 18.926 13.7291 18.5839 12.4864C18.3669 11.6987 17.9501 11.178 17.1621 10.9349C16.8019 10.8239 16.4619 10.6431 16.1202 10.4784C15.8788 10.362 15.6893 10.3837 15.5261 10.6075C14.9775 11.3602 14.2287 11.7724 13.2481 11.9296ZM15.087 53.2224C14.6598 52.7909 14.23 52.3619 13.8058 51.9275C11.5784 49.6468 9.3486 47.3684 7.13086 45.0783C6.87624 44.8154 6.70055 44.8212 6.46615 45.0768C6.1688 45.401 5.86747 45.7252 5.53743 46.0148C5.25283 46.2645 5.31273 46.4446 5.54546 46.6826C7.98659 49.1786 10.4227 51.6797 12.8558 54.1835C13.0511 54.3845 13.267 54.4649 13.544 54.4609C14.3485 54.4495 15.1532 54.4573 15.9578 54.4521C16.0515 54.4515 16.1756 54.4998 16.2387 54.3249C15.8758 53.9782 15.5041 53.6231 15.087 53.2224ZM10.9768 54.2022C8.95922 52.1442 6.94139 50.0864 4.92424 48.028C4.18701 47.2757 4.0638 47.2816 3.39041 48.1097C3.38085 48.1215 3.37082 48.1329 3.3604 48.1439C3.1929 48.3207 3.20579 48.4902 3.37578 48.6587C3.64482 48.9253 3.91338 49.1924 4.17857 49.4628C5.68665 51.0006 7.19251 52.5405 8.70276 54.0761C8.86024 54.2362 9.01605 54.4293 9.26358 54.4367C9.82436 54.4535 10.3857 54.4537 10.9468 54.4553C11.1678 54.456 11.1236 54.3547 10.9768 54.2022ZM7.8585 13.7787C6.86005 13.2539 5.8163 13.4186 5.08421 14.2166C4.46085 14.8961 4.37037 16.0072 4.90285 16.7858C5.43702 17.5668 6.18896 17.9531 7.13122 17.7751C8.02991 17.6053 8.60736 17.0331 8.79805 16.1233C8.99759 15.1712 8.70933 14.393 7.8585 13.7787ZM11.8839 10.5C11.9846 10.5331 12.0839 10.5716 12.1863 10.5986C13.1619 10.8555 14.0908 10.4577 14.632 9.55306C15.1021 8.7674 14.9643 7.64989 14.3152 6.98416C13.657 6.30902 12.5261 6.12412 11.709 6.57468C10.9606 6.98733 10.5414 7.60856 10.5395 8.48717C10.5375 9.42953 11.0198 10.052 11.8839 10.5ZM8.00685 9.31205C7.8916 9.29826 7.7675 9.24077 7.6813 9.37388C7.6813 9.40723 7.67123 9.44161 7.68275 9.46565C8.38278 10.9267 9.08459 12.3869 9.78621 13.8472C9.85048 13.981 9.95175 14.0574 10.1044 14.0659C10.5274 14.0894 10.9504 14.1139 11.3732 14.1423C11.6866 14.1633 11.8127 14.0132 11.8056 13.7091C11.7944 13.2245 11.7842 12.7393 11.7943 12.2548C11.8007 11.9452 11.709 11.7565 11.3891 11.6448C10.6803 11.3974 10.0657 10.9686 9.75745 10.2798C9.47439 9.64732 9.02593 9.40712 8.39107 9.37469C8.28573 9.36931 8.18138 9.34475 8.00685 9.31205ZM27.3293 42.5261C28.4488 42.5783 29.5772 42.7291 30.6707 42.364C30.9821 42.26 31.489 42.2213 31.491 41.8457C31.4927 41.5077 31.0312 41.3622 30.7087 41.2357C29.0604 40.5891 27.5247 40.9432 26.0514 41.7882C25.9345 41.8553 25.823 41.945 25.8432 42.1479C26.2618 42.4088 26.7463 42.4914 27.3293 42.5261ZM16.252 34.5268C15.27 35.8912 14.288 37.2556 13.306 38.62C14.0869 38.5503 14.7718 38.3498 15.4811 38.2723C15.662 38.2525 15.757 38.1008 15.8592 37.967C16.3842 37.2797 16.8366 36.5338 17.3817 35.8698C17.9814 35.1393 17.7221 34.3652 17.782 33.5386C17.0994 33.6581 16.7344 34.1275 16.252 34.5268ZM22.9754 27.8258C22.649 27.7588 22.3254 27.6625 21.9956 27.6306C21.188 27.5523 20.3814 27.5383 19.669 28.026C18.9985 28.485 18.9719 28.6818 19.4744 29.2862C19.5132 29.3329 19.5562 29.3774 19.5873 29.4289C19.7618 29.7184 19.9638 29.7572 20.2657 29.5791C20.9925 29.1502 21.789 28.9075 22.624 28.791C23.1091 28.7234 23.5945 28.6578 24.1223 28.5854C23.837 28.1477 23.4447 27.9926 22.9754 27.8258ZM41.7617 4.48358C42.3188 4.74065 42.8759 4.99772 43.4467 5.26112C43.5849 4.28882 43.0138 3.35484 42.0881 2.91637C40.8961 2.35174 39.7283 2.86225 38.5278 3.01808C39.5849 3.49725 40.6421 3.97642 41.7617 4.48358ZM40.6029 46.1979C42.0373 46.3332 43.2459 45.7602 43.8433 44.6346C42.6918 44.6673 41.5618 44.6417 40.4419 44.4452C39.701 44.3152 39.6926 44.3227 39.6213 45.0483C39.5894 45.3733 39.3327 45.7433 39.5302 46.0039C39.7457 46.2884 40.1888 46.0938 40.6029 46.1979ZM26.9283 28.3181C26.8298 28.4016 26.6826 28.4481 26.6985 28.664C27.9237 28.832 29.101 29.1781 30.2058 29.9592C30.4563 28.967 30.866 28.1545 31.2455 27.3099C30.4991 27.6758 29.7348 27.8086 28.9361 27.7806C28.2364 27.7561 27.5857 27.9315 26.9283 28.3181ZM39.4323 25.8061C39.268 25.883 39.1027 25.958 38.9395 26.0372C37.8225 26.5792 37.8299 26.5743 38.5623 27.6001C38.7402 27.8491 38.8969 27.902 39.1573 27.7359C39.7208 27.3765 40.3263 27.1018 40.9659 26.9058C41.6056 26.7097 41.6062 26.7115 41.5785 26.0385C41.576 25.978 41.5757 25.9174 41.5708 25.8571C41.528 25.3247 41.4102 25.2301 40.8754 25.3347C40.3991 25.4278 39.944 25.5934 39.4323 25.8061ZM44.8556 26.4543C44.808 26.6205 44.8376 26.7617 45.0105 26.8299C45.7586 27.1251 46.4795 27.4733 47.1543 27.9133C47.2726 27.9905 47.3857 27.9853 47.4781 27.8751C47.7471 27.5544 48.0937 27.2992 48.3066 26.9369C47.9384 26.5051 47.184 26.0506 46.2089 25.6782C45.0054 25.2186 45.164 25.2402 44.8556 26.4543ZM35.0607 38.1706C35.3704 37.9808 35.6774 37.7863 35.9908 37.603C36.1591 37.5045 36.229 37.3907 36.15 37.194C35.9184 36.6173 35.7459 36.0216 35.6033 35.4172C35.5631 35.2468 35.4685 35.1556 35.2854 35.162C34.9679 35.1732 34.6498 35.1707 34.3328 35.1893C34.0792 35.2042 33.95 35.3219 34.0057 35.6061C34.1659 36.4244 34.3678 37.2296 34.6974 37.9982C34.7542 38.1307 34.7884 38.3149 35.0607 38.1706ZM39.5496 40.9804C39.1518 40.7314 38.7513 40.4867 38.3577 40.2313C38.2138 40.138 38.0835 40.0169 37.9199 40.1818C37.7113 40.3922 37.4616 40.568 37.3 40.8747C37.7077 41.1135 38.1356 41.2712 38.4961 41.549C38.8765 41.842 39.0947 42.2749 39.4313 42.5939C39.9474 43.0831 40.4179 42.929 40.6091 42.2589C40.6299 42.1861 40.6421 42.1089 40.6747 42.0417C40.8527 41.6746 40.6966 41.486 40.3484 41.3598C40.0934 41.2674 39.855 41.1294 39.5496 40.9804ZM35.9428 29.3612C35.7961 29.2621 35.6872 29.1 35.4463 29.0786C34.9555 29.7577 34.6374 30.5308 34.4061 31.3451C34.3808 31.4343 34.3674 31.551 34.4604 31.591C34.8484 31.7579 35.247 31.9356 35.6742 31.908C35.9734 31.8887 35.9487 31.5493 36.0604 31.3488C36.1484 31.1908 36.2153 31.0211 36.2926 30.857C36.694 30.0053 36.6941 30.0054 35.9428 29.3612ZM7.87527 20.2197C7.83252 20.106 7.77727 19.9953 7.74914 19.8781C7.61253 19.309 7.29223 19.0872 6.67612 19.0997C5.85443 19.1164 5.10015 18.826 4.4761 18.2521C4.3352 18.1225 4.21594 17.9521 3.99433 17.8977C3.79662 18.045 3.58181 18.1806 3.45693 18.5032C4.92805 19.2964 6.39577 20.0581 7.90379 20.7422C8.02268 20.5292 7.93769 20.4072 7.87527 20.2197ZM45.1826 36.078C44.5891 36.1647 44.3918 36.5737 44.7661 37.0133C45.2164 37.542 45.6965 38.0472 46.1877 38.5385C46.466 38.8168 46.8047 38.8594 47.1209 38.5742C47.3872 38.3341 47.4106 37.9436 47.129 37.6389C46.5745 37.0391 45.9751 36.485 45.1826 36.078ZM40.2608 30.049C40.1104 29.8923 39.9331 29.778 39.7187 29.7362C39.4506 29.6839 39.2441 29.7991 39.0921 30.0095C38.9744 30.1724 38.8724 30.3573 39.0174 30.5516C39.5281 31.2357 40.1371 31.8219 40.8425 32.3013C41.0456 32.4394 41.2853 32.4266 41.4675 32.2374C41.6363 32.0621 41.6924 31.8537 41.5881 31.6118C41.4903 31.3853 41.3532 31.1888 41.1858 31.0121C40.8945 30.7047 40.5992 30.401 40.2608 30.049ZM40.0607 34.5737C40.4277 34.5263 40.6782 34.3256 40.6384 33.9501C40.5999 33.5862 40.3269 33.4224 39.9559 33.4238C39.2732 33.4264 38.5904 33.4089 37.908 33.4198C37.5106 33.4262 37.1989 33.7635 37.2831 34.0867C37.3866 34.4839 37.698 34.6342 38.0763 34.6403C38.7127 34.6506 39.3507 34.679 40.0607 34.5737ZM46.7549 41.607C47.0368 41.2338 47.5218 40.9935 47.5864 40.4384C47.4082 40.4038 47.3173 40.4553 47.2291 40.5144C46.6071 40.9314 45.9112 41.1894 45.2128 41.4367C44.3369 41.7467 44.3339 41.7381 44.4633 42.6345C44.5546 43.2667 44.7233 43.3577 45.2912 43.0465C45.4734 42.9467 45.6379 42.8018 45.7845 42.6521C46.1018 42.3279 46.4023 41.9872 46.7549 41.607ZM12.9916 4.01049C12.6532 3.91042 12.3517 3.68919 11.9599 3.66989C11.9788 4.06929 12.1094 4.40761 12.2089 4.75288C12.2679 4.95798 12.4027 5.03447 12.6145 5.03572C13.5076 5.04099 14.3129 5.30198 15.0045 5.88247C15.1223 5.98132 15.2587 6.08527 15.4063 5.94697C15.6304 5.7369 15.897 5.55829 16.0292 5.24435C15.0157 4.83415 14.0354 4.43735 12.9916 4.01049ZM51.854 36.7663C52.131 35.933 52.1311 35.9323 51.277 35.747C51.0853 35.7054 50.8928 35.6662 50.6994 35.6332C50.5398 35.6059 50.3779 35.6211 50.3295 35.8046C50.1483 36.4918 49.9154 37.1604 49.6649 37.8251C49.5903 38.0232 49.7198 38.3202 49.9477 38.1652C50.5327 37.7673 51.1483 37.4222 51.7378 37.0345C51.7901 37.0001 51.7994 36.9003 51.854 36.7663ZM48.6538 33.7562C48.63 33.7376 48.6086 33.7078 48.582 33.7021C47.7019 33.5131 46.815 33.5806 45.9368 33.6874C45.6534 33.7218 45.4983 34.0052 45.5537 34.3198C45.6063 34.6183 45.8185 34.7531 46.1055 34.7563C46.8005 34.764 47.4966 34.7817 48.1906 34.7535C48.7387 34.7313 48.9555 34.2962 48.6538 33.7562ZM43.874 29.1971C43.8317 28.6789 43.5734 28.3091 43.2376 28.3516C42.7785 28.4096 42.7301 28.8073 42.652 29.163C42.6424 29.2067 42.6456 29.2534 42.6449 29.2988C42.6356 29.8739 42.6411 30.4483 42.7085 31.0207C42.7418 31.3036 42.8026 31.5935 43.1338 31.6344C43.4807 31.6773 43.5844 31.3837 43.6675 31.1202C43.8563 30.5213 43.8577 29.8993 43.874 29.1971ZM39.7917 36.7405C39.522 36.9825 39.2421 37.2143 38.9855 37.4696C38.7387 37.7151 38.6205 37.9935 38.9022 38.3035C39.1652 38.593 39.4573 38.5868 39.7501 38.3704C40.3382 37.9357 40.7891 37.3623 41.2656 36.8179C41.4582 36.5978 41.4347 36.3281 41.2287 36.118C41.0118 35.8969 40.7555 35.94 40.5304 36.111C40.2903 36.2933 40.069 36.5004 39.7917 36.7405ZM16.9608 6.40718C16.9235 6.34075 16.8587 6.32602 16.8134 6.37498C16.4077 6.81313 15.8232 7.16071 16.1045 7.92934C16.1898 8.16244 16.166 8.43609 16.188 8.69154C16.1984 8.81293 16.1898 8.95198 16.3045 9.02C16.7507 9.28445 17.2102 9.52053 17.8017 9.65798C17.513 8.53487 17.2466 7.49867 16.9608 6.40718ZM45.8616 32.0552C46.2705 31.6942 46.7129 31.3684 47.069 30.9514C47.3026 30.6777 47.4466 30.3769 47.1107 30.075C46.8024 29.798 46.4934 29.8643 46.2215 30.131C45.832 30.5129 45.4448 30.8985 45.0801 31.3037C44.839 31.5717 44.5355 31.8914 44.864 32.2564C45.2137 32.6451 45.5164 32.2889 45.8616 32.0552ZM42.7562 33.3174C42.2032 33.5536 41.9957 33.9108 42.0988 34.4491C42.1863 34.9066 42.5922 35.2665 43.0456 35.2888C43.6566 35.3187 44.0839 34.8403 44.0531 34.1608C44.0258 33.5589 43.5329 33.2129 42.7562 33.3174ZM43.4841 37.8693C43.4599 37.7359 43.4432 37.6005 43.4099 37.4694C43.3391 37.1901 43.2192 36.9322 42.8803 36.946C42.5463 36.9597 42.5075 37.2482 42.4455 37.4997C42.306 38.0659 42.3473 38.6438 42.3439 39.2173C42.3407 39.763 42.5829 40.115 42.9154 40.107C43.1993 40.1001 43.4567 39.7174 43.4783 39.2232C43.4967 38.7999 43.4841 38.3753 43.4841 37.8693ZM17.1443 32.0797C17.7466 32.1167 18.0875 31.7556 18.3567 31.2844C18.4331 31.1507 18.4448 31.0168 18.3111 30.92C17.9995 30.6944 17.6554 30.5281 17.2639 30.5412C16.9977 30.5501 16.8262 30.6802 16.8136 30.9962C16.7937 31.4941 16.6328 31.5655 16.1978 31.3021C16.0688 31.224 15.9568 31.1169 15.8257 31.0433C15.6846 30.964 15.5504 30.7223 15.367 30.9339C15.1933 31.1343 15.3614 31.2967 15.5041 31.4375C15.9378 31.8655 16.4859 32.0134 17.1443 32.0797ZM11.0436 25.3874C10.8179 25.3338 10.5927 25.3347 10.3683 25.395C9.99764 25.4947 9.92899 25.6905 10.1917 25.9791C10.6452 26.4772 11.23 26.7045 11.8948 26.7122C12.1226 26.7148 12.3686 26.6626 12.4403 26.3932C12.509 26.1352 12.3465 25.9602 12.1577 25.8192C11.8488 25.5885 11.5032 25.4407 11.0436 25.3874ZM14.2531 27.7935C13.994 27.8441 13.7158 27.9059 13.6746 28.2131C13.6337 28.5179 13.8971 28.6528 14.1148 28.7883C14.4705 29.0097 14.8588 29.123 15.2806 29.097C15.482 29.0846 15.6883 29.0482 15.7685 28.833C15.854 28.6035 15.736 28.4163 15.5699 28.2699C15.2158 27.9578 14.7938 27.8103 14.2531 27.7935ZM41.7523 43.063C42.1631 43.3507 42.6231 43.1954 43.064 43.204C43.1424 43.2056 43.1823 43.1256 43.2094 43.0493C43.4071 42.4943 43.1254 42.0715 42.5468 42.0005C42.1299 41.9494 41.8734 42.0579 41.823 42.5062C41.8045 42.6702 41.7639 42.8318 41.7523 43.063ZM52.224 34.0241C52.1898 33.8797 52.2089 33.7197 52.0726 33.5603C51.7226 33.6047 51.3509 33.6549 50.9783 33.6975C50.8192 33.7157 50.6737 33.7321 50.6612 33.9415C50.6492 34.1402 50.6797 34.3109 50.9053 34.3657C51.1556 34.4265 51.4087 34.4756 51.6592 34.5358C52.035 34.6263 52.2578 34.5256 52.224 34.0241ZM42.9056 25.1695C42.7083 25.4911 42.815 25.8402 42.8322 26.1751C42.8436 26.3955 43.0602 26.3783 43.2212 26.3856C43.3991 26.3937 43.5703 26.4085 43.6715 26.1879C44.0596 25.3418 43.8936 25.0833 42.9056 25.1695ZM35.3812 33.3214C35.0633 32.9592 34.5881 33.0345 34.1891 32.8986C34.0974 32.8674 34.0316 32.9485 33.9927 33.043C33.7926 33.5292 34.0067 33.8648 34.5257 33.8696C34.6609 33.8709 34.7968 33.8598 34.9314 33.869C35.2769 33.8925 35.4444 33.7513 35.3812 33.3214ZM49.515 28.7808C49.8203 28.5767 49.9796 28.3573 49.649 28.0283C49.3061 27.6871 49.1588 28.0277 48.9654 28.2061C48.8552 28.3077 48.7538 28.4199 48.6563 28.534C48.4951 28.7224 48.6787 28.8299 48.7656 28.957C48.8595 29.0944 48.9717 29.1828 49.1388 29.0609C49.248 28.9812 49.3556 28.8992 49.515 28.7808ZM37.7043 28.5346C37.4823 28.1517 37.2505 27.776 36.9634 27.4405C36.3262 27.9289 36.3247 27.9467 36.8554 28.4214C36.9673 28.5215 37.0834 28.6167 37.1975 28.7144C37.4249 28.9092 37.6001 28.8883 37.7043 28.5346ZM36.8722 38.8221C36.2865 38.6218 36.0671 39.1852 35.6514 39.3409C35.9899 40.0266 36.124 40.0534 36.5913 39.5794C36.6862 39.4831 36.7901 39.3953 36.8806 39.2952C36.999 39.1641 37.0801 39.0223 36.8722 38.8221ZM18.1429 37.8007C18.0938 37.7321 18.0961 37.6202 17.9623 37.6032C17.8285 37.7852 17.6657 37.9566 17.5956 38.2817C17.8363 38.1236 18.3439 38.5092 18.1429 37.8007Z" fill="white"/>
<path d="M1.16847 24.8569C0.618838 25.1709 0.148098 24.9877 0.0521983 24.4136C-0.0957911 23.5278 0.0451572 22.7108 0.809902 22.1194C1.54228 21.5531 2.36442 21.4202 3.20918 21.7804C4.08768 22.1551 4.59898 22.8393 4.62483 23.8266C4.63074 24.0522 4.63171 24.287 4.57753 24.5031C4.49596 24.8285 4.25987 25.036 3.91651 25.0226C3.57714 25.0094 3.35304 24.7935 3.28382 24.4637C3.2344 24.2282 3.23506 23.9818 3.21728 23.74C3.17798 23.2055 2.79077 22.8502 2.26038 22.8649C1.7847 22.8781 1.38676 23.2773 1.34468 23.7693C1.31428 24.1248 1.44299 24.5041 1.16847 24.8569Z" fill="white"/>
<path d="M50.649 6.22769C49.8696 5.48921 50.1966 4.11897 51.1909 3.84224C51.7428 3.68864 52.392 3.90479 52.7167 4.37955C53.0933 4.93036 53.0859 5.59521 52.698 6.07364C52.2898 6.57703 51.6495 6.74074 51.0641 6.48139C50.927 6.42063 50.8038 6.32823 50.649 6.22769Z" fill="white"/>
<path d="M53.4798 51.3763C53.2404 52.1505 52.5515 52.593 51.88 52.4363C51.1199 52.259 50.6728 51.6057 50.7888 50.8416C50.8906 50.1716 51.5493 49.6404 52.2171 49.6917C52.9871 49.7507 53.6235 50.534 53.4798 51.3763Z" fill="white"/>
<path d="M3.3429 4.31064C3.74267 3.55245 4.429 3.3454 5.05197 3.76384C5.61655 4.14307 5.73305 4.85498 5.31786 5.38865C5.02031 5.77112 4.47138 5.91442 4.00519 5.73134C3.4898 5.52893 3.25221 5.04138 3.3429 4.31064Z" fill="white"/>
<path d="M48.5361 54.5095C48.9139 54.5119 49.247 54.5079 49.5797 54.5182C49.9972 54.5313 50.2358 54.7899 50.2678 55.1695C50.3002 55.5531 50.0346 55.8158 49.6744 55.8537C49.0147 55.9232 48.3443 55.9681 47.6864 55.8412C47.3373 55.7738 47.1329 55.5111 47.1548 55.15C47.1766 54.7892 47.4057 54.5695 47.7659 54.5279C48.0052 54.5002 48.2493 54.5142 48.5361 54.5095Z" fill="white"/>
<path d="M49.2808 2.59378C49.2061 3.15164 48.9379 3.5048 48.4014 3.59242C47.986 3.66027 47.6568 3.4918 47.434 3.13924C47.1078 2.62304 47.2894 1.98653 47.8319 1.70885C48.3574 1.43991 48.9475 1.65343 49.1897 2.20775C49.2372 2.3166 49.2516 2.43993 49.2808 2.59378Z" fill="white"/>
<path d="M22.1189 2.88604C21.9711 3.78568 21.2028 4.17841 20.5871 3.70537C20.2608 3.4547 20.0987 3.12682 20.193 2.71615C20.286 2.31065 20.5511 2.04887 20.9662 1.99071C21.3739 1.93358 21.7045 2.10771 21.939 2.4383C22.0235 2.55739 22.0588 2.71138 22.1189 2.88604Z" fill="white"/>
<path d="M1.91421 44.1736C1.85155 43.5866 2.13698 43.1922 2.62835 43.1375C3.04503 43.0911 3.47432 43.4239 3.54149 43.8453C3.61553 44.3099 3.36595 44.6919 2.89148 44.7741C2.42716 44.8546 2.11178 44.628 1.91421 44.1736Z" fill="white"/>
<path d="M3.83824 40.8899C4.5704 40.8537 5.05296 41.3702 4.83851 41.9209C4.6981 42.2815 4.43303 42.483 4.03446 42.4433C3.60323 42.4004 3.34595 42.1224 3.26898 41.7245C3.18922 41.3121 3.41112 41.037 3.83824 40.8899Z" fill="white"/>
<path d="M53.7203 22.9185C53.4324 22.5219 53.4989 22.1764 53.7926 21.8669C54.0356 21.6108 54.3347 21.5493 54.663 21.6976C55.0052 21.8522 55.1647 22.1275 55.1425 22.4955C55.1248 22.7896 54.9669 23.0064 54.6997 23.1332C54.3371 23.3053 54.0251 23.1973 53.7203 22.9185Z" fill="white"/>
<path d="M24.699 0.682806C24.8549 1.12172 24.7703 1.46516 24.4038 1.70202C24.1252 1.88209 23.8283 1.87652 23.5608 1.66978C23.3109 1.47666 23.1377 1.23085 23.2021 0.893465C23.2669 0.554338 23.4683 0.310499 23.8084 0.235104C24.1924 0.149964 24.4786 0.326905 24.699 0.682806Z" fill="white"/>
<path d="M1.14124 39.9044C1.06917 39.4519 1.16148 39.098 1.59532 38.9459C1.94116 38.8246 2.25982 38.9131 2.49333 39.2077C2.79209 39.5847 2.7009 40.0954 2.29955 40.3562C1.88018 40.6287 1.4669 40.4787 1.14124 39.9044Z" fill="white"/>
<path d="M55.4072 55.8825C54.9885 56.0794 54.6328 56.0347 54.3554 55.7024C54.1561 55.4637 54.1257 55.1757 54.2826 54.8985C54.4413 54.6183 54.6827 54.4369 55.0196 54.4655C55.3465 54.4932 55.5901 54.6785 55.7062 54.9816C55.8403 55.3315 55.7295 55.631 55.4072 55.8825Z" fill="white"/>
<path d="M53.0084 55.4222C52.8493 55.8454 52.551 56.0323 52.1517 55.9945C51.7664 55.958 51.506 55.7111 51.4555 55.3271C51.4043 54.9381 51.611 54.6529 51.9716 54.5158C52.3461 54.3733 52.6525 54.5125 52.8762 54.8301C52.9915 54.9937 53.0536 55.1798 53.0084 55.4222Z" fill="white"/>
<path d="M17.6377 0.124756C18.3899 0.321363 18.6596 0.967699 18.2123 1.42732C18.0101 1.6351 17.7552 1.72877 17.4707 1.63944C17.1547 1.54021 16.9717 1.29928 16.9228 0.980633C16.8789 0.694166 16.9739 0.439152 17.2308 0.279062C17.3429 0.209229 17.4774 0.175417 17.6377 0.124756Z" fill="white"/>
<path d="M4.07407 54.5456C4.6589 54.4164 5.05036 54.5972 5.15733 55.036C5.24016 55.3758 5.1554 55.6821 4.8418 55.8633C4.50996 56.0549 4.16139 56.0345 3.87806 55.7649C3.60385 55.504 3.59552 55.1781 3.75769 54.8462C3.81927 54.7201 3.9217 54.6305 4.07407 54.5456Z" fill="white"/>
<path d="M2.43941 55.2675C2.29328 55.7725 1.99473 56.0272 1.61226 55.9784C1.231 55.9298 0.961095 55.743 0.929225 55.3214C0.89647 54.8881 1.13829 54.5658 1.53851 54.5069C2.0087 54.4375 2.33121 54.6963 2.43941 55.2675Z" fill="white"/>
<path d="M0.553358 27.5642C0.762907 27.2138 1.04168 27.0719 1.40812 27.1649C1.82147 27.2699 2.05663 27.664 1.96534 28.0659C1.87419 28.4672 1.47929 28.6942 1.05575 28.5888C0.638764 28.485 0.437583 28.0991 0.553358 27.5642Z" fill="white"/>
<path d="M54.79 46.0631C55.0166 46.3056 55.0204 46.6061 55.0657 46.8706C55.104 47.0942 54.8759 47.2304 54.6483 47.2692C54.3322 47.3231 54.0678 47.2326 53.9357 46.9244C53.8293 46.6762 53.8328 46.4108 54.0214 46.1983C54.2214 45.9728 54.477 45.9136 54.79 46.0631Z" fill="white"/>
<path d="M20.6517 8.45546C20.2628 8.38278 20.0917 8.14907 20.0953 7.80873C20.0983 7.51808 20.2747 7.33035 20.5607 7.26842C20.8527 7.20517 21.0647 7.34251 21.2094 7.58116C21.4323 7.94884 21.2025 8.32813 20.6517 8.45546Z" fill="white"/>
<path d="M27.3815 0.484604C26.9952 0.437222 26.7259 0.635605 26.47 0.852899C26.2244 0.590988 26.3349 0.382857 26.4869 0.217751C26.6876 -0.000207235 26.9584 -0.0694082 27.2287 0.0785715C27.3613 0.151214 27.6059 0.228228 27.3815 0.484604Z" fill="white"/>
<path d="M35.5672 47.0478C35.1075 46.7441 35.0481 46.3181 35.1256 45.8642C35.1811 45.5394 35.3938 45.3127 35.7283 45.2639C36.0717 45.2138 36.306 45.4017 36.4536 45.6975C36.6379 46.0666 36.6135 46.4344 36.3899 46.7763C36.204 47.0606 35.9333 47.1606 35.5672 47.0478Z" fill="white"/>
<path d="M51.6676 41.1068C51.9255 40.7367 52.2467 40.6617 52.6015 40.8494C52.9376 41.027 53.0433 41.3388 52.9495 41.7019C52.8479 42.0948 52.5013 42.3217 52.1289 42.2609C51.7885 42.2053 51.5451 41.8819 51.5652 41.4892C51.5713 41.3708 51.6204 41.2546 51.6676 41.1068Z" fill="white"/>
<path d="M32.23 9.15918C31.8575 8.90072 31.9699 8.58579 32.0706 8.28192C32.1333 8.09266 32.2665 7.94264 32.406 7.8012C33.3176 6.87664 34.2009 7.05169 34.6761 8.25835C34.826 8.63883 34.9704 9.02213 34.7903 9.44383C34.6555 9.75937 34.4475 9.90255 34.1118 9.79378C33.4929 9.59323 32.8772 9.38275 32.23 9.15918Z" fill="white"/>
<path d="M33.1469 11.2399C33.3283 11.6028 33.314 11.9157 33.0178 12.1679C32.8255 12.3316 32.6031 12.4159 32.3494 12.2908C32.0858 12.1609 31.9154 11.9656 31.9138 11.658C31.9124 11.3713 32.0576 11.1717 32.3064 11.0457C32.621 10.8863 32.8898 10.9728 33.1469 11.2399Z" fill="white"/>
<path d="M31.354 13.965C31.8652 13.5373 32.3982 13.6471 32.5065 14.1794C32.5675 14.4791 32.5187 14.7623 32.2243 14.9332C31.9774 15.0764 31.7271 15.0623 31.502 14.8827C31.1947 14.6374 31.1493 14.3351 31.354 13.965Z" fill="white"/>
<path d="M34.9527 4.79946C35.1104 5.22892 34.97 5.52768 34.5987 5.67708C34.2522 5.81655 33.9714 5.65401 33.8136 5.33308C33.6647 5.0303 33.7026 4.72103 34.0024 4.53515C34.3698 4.30727 34.694 4.41526 34.9527 4.79946Z" fill="white"/>
<path d="M50.7436 12.3771C50.5919 12.7492 50.3359 12.9099 49.9747 12.8204C49.701 12.7526 49.5424 12.5481 49.513 12.2618C49.4739 11.8809 49.7471 11.5494 50.1043 11.5366C50.4961 11.5225 50.7418 11.8299 50.7436 12.3771Z" fill="white"/>
<path d="M38.9782 6.48879C39.4097 6.47866 39.659 6.66862 39.6959 7.05817C39.7268 7.38353 39.5354 7.61043 39.2301 7.6971C38.9032 7.7899 38.6322 7.6738 38.4674 7.36814C38.2666 6.9957 38.4427 6.67662 38.9782 6.48879Z" fill="white"/>
<path d="M51.972 13.7966C51.8359 13.781 51.7248 13.777 51.6338 13.7323C51.3429 13.5896 51.2122 13.3484 51.2696 13.0262C51.325 12.7157 51.5355 12.5461 51.8371 12.535C52.1303 12.5243 52.3716 12.6579 52.4703 12.9528C52.5723 13.2579 52.5002 13.5208 52.2126 13.6975C52.1489 13.7366 52.0752 13.7594 51.972 13.7966Z" fill="white"/>
<path d="M41.2017 7.54318C41.8593 7.5318 42.1925 7.97307 41.9159 8.44085C41.7771 8.67555 41.5701 8.82694 41.2813 8.7803C41.0007 8.73497 40.8206 8.55773 40.7704 8.27781C40.7094 7.9379 40.844 7.69142 41.2017 7.54318Z" fill="white"/>
<path d="M36.6538 6.65068C36.183 6.35578 36.0583 6.04351 36.27 5.7171C36.4449 5.44751 36.6984 5.33447 37.0131 5.44443C37.347 5.56108 37.4989 5.81606 37.4202 6.15533C37.3343 6.52539 37.0846 6.7151 36.6538 6.65068Z" fill="white"/>
<path d="M46.3489 10.4313C46.1654 10.7343 45.9269 10.874 45.6069 10.7894C45.3715 10.7272 45.2148 10.5585 45.16 10.3176C45.0991 10.0499 45.2194 9.84241 45.42 9.68133C45.6337 9.50968 45.8699 9.51491 46.1003 9.64647C46.4022 9.81888 46.4274 10.0948 46.3489 10.4313Z" fill="white"/>
<path d="M48.388 19.9731C48.3699 19.6631 48.436 19.4207 48.7093 19.2996C48.933 19.2006 49.1569 19.2338 49.3477 19.3883C49.5662 19.5653 49.6501 19.795 49.5701 20.0736C49.4883 20.3591 49.2976 20.491 49.0024 20.4917C48.667 20.4924 48.4616 20.3392 48.388 19.9731Z" fill="white"/>
<path d="M50.7336 17.883C50.6135 18.2765 50.3612 18.4361 50.0007 18.3684C49.7071 18.3132 49.5193 18.1229 49.5124 17.8037C49.5057 17.4924 49.6669 17.2885 49.9531 17.1914C50.3645 17.052 50.6839 17.3229 50.7336 17.883Z" fill="white"/>
<path d="M43.9865 9.71669C43.6095 9.94679 43.3174 9.86206 43.1045 9.53496C42.91 9.23601 42.9765 8.94961 43.2457 8.73094C43.4831 8.53814 43.7457 8.52904 43.9906 8.73172C44.2737 8.96598 44.2783 9.29452 43.9865 9.71669Z" fill="white"/>
<path d="M47.7618 10.6207C48.1778 10.5494 48.4655 10.6588 48.5438 11.069C48.5989 11.3576 48.5244 11.6165 48.2298 11.7504C47.9201 11.8911 47.664 11.7773 47.4689 11.5326C47.2707 11.284 47.3103 11.0239 47.509 10.7903C47.5653 10.7241 47.6528 10.6844 47.7618 10.6207Z" fill="white"/>
<path d="M51.1033 14.9447C51.4855 14.9703 51.6984 15.1569 51.7446 15.5028C51.7801 15.7682 51.6712 15.9731 51.4257 16.1003C51.1751 16.2301 50.952 16.1723 50.7558 15.9977C50.3899 15.6719 50.5459 15.1591 51.1033 14.9447Z" fill="white"/>
<path d="M10.3841 32.0474C11.275 31.6724 12.0959 31.8633 12.6093 32.5411C13.073 33.1533 13.0625 34.0123 12.5875 34.61C12.1218 35.1959 11.5001 35.3991 10.8042 35.2103C10.1101 35.0221 9.63647 34.5224 9.54049 33.8028C9.44475 33.0849 9.68043 32.4557 10.3841 32.0474Z" fill="white"/>
<path d="M6.69514 31.304C6.19199 30.6999 6.07186 30.0661 6.42286 29.3836C6.73284 28.7808 7.24127 28.4441 7.92125 28.4619C8.64612 28.4808 9.17943 28.846 9.49729 29.5052C9.81965 30.1737 9.61762 31.0045 9.01349 31.513C8.46909 31.9712 7.61398 32.0084 7.02733 31.5938C6.91683 31.5157 6.82068 31.4173 6.69514 31.304Z" fill="white"/>
<path d="M3.70895 32.7826C4.75333 31.7962 6.23919 32.4711 6.5371 33.4193C6.77493 34.1763 6.49059 34.9721 5.78606 35.4296C5.17166 35.8285 4.32425 35.7376 3.77619 35.2139C3.1973 34.6607 3.06327 33.8291 3.4481 33.1376C3.51372 33.0196 3.60556 32.9163 3.70895 32.7826Z" fill="white"/>
<path d="M10.178 37.5536C9.89639 38.5535 9.03565 39.0801 8.12371 38.8465C7.2128 38.6131 6.65031 37.7293 6.84666 36.8399C7.02898 36.014 7.72154 35.5037 8.58246 35.5609C9.37487 35.6135 10.1249 36.3343 10.1844 37.1059C10.1948 37.2413 10.1839 37.3784 10.178 37.5536Z" fill="white"/>
<path d="M27.8953 35.71C28.538 36.4327 28.4924 37.2295 27.8028 37.7983C27.2491 38.2551 26.3813 38.1474 25.9352 37.5666C25.5258 37.0336 25.5607 36.3292 26.0222 35.8115C26.4981 35.2776 27.1608 35.2332 27.8953 35.71Z" fill="white"/>
<path d="M22.7763 35.4043C23.5291 35.6951 23.8809 36.1558 23.8593 36.782C23.8401 37.3377 23.4621 37.8261 22.9262 37.9937C22.393 38.1605 21.925 38.0271 21.5661 37.6241C21.2066 37.2205 21.0361 36.7413 21.2669 36.2001C21.4914 35.6738 21.9067 35.4165 22.468 35.3817C22.5577 35.3761 22.6487 35.391 22.7763 35.4043Z" fill="white"/>
<path d="M21.4399 33.7595C21.0932 32.9446 21.296 32.2962 21.9786 31.9507C22.6168 31.6277 23.3592 31.8307 23.7328 32.4305C24.0745 32.9791 23.9727 33.6347 23.477 34.077C22.9816 34.519 22.2245 34.5308 21.7271 34.0967C21.6255 34.008 21.5466 33.8933 21.4399 33.7595Z" fill="white"/>
<path d="M28.0218 32.4295C28.446 33.2262 28.2123 34.004 27.483 34.3219C26.8038 34.6179 26.0236 34.265 25.7519 33.5388C25.4891 32.8363 25.886 32.0827 26.6463 31.8777C27.2155 31.7242 27.639 31.9938 28.0218 32.4295Z" fill="white"/>
<path d="M21.9142 20.2717C22.0035 20.0936 22.0863 19.9466 22.1399 19.7897C22.393 19.0483 23.0677 19.0655 23.6345 19.0573C24.1234 19.0503 24.4317 19.4419 24.513 19.9517C24.5405 20.1243 24.6576 20.1982 24.8081 20.1311C25.406 19.8644 25.9891 19.9458 26.529 20.209C26.6802 20.0938 26.6764 19.9629 26.715 19.8514C26.916 19.2716 27.3982 18.927 27.9901 18.9415C28.5496 18.9552 29.0943 19.3552 29.1961 19.9358C29.2571 20.2839 29.42 20.4201 29.7164 20.5185C29.8843 20.5743 30.0459 20.6792 30.182 20.7953C30.8507 21.3659 30.7333 22.166 29.9143 22.4651C29.5682 22.5914 29.49 22.7228 29.571 23.088C29.7298 23.804 29.2587 24.5875 28.5591 24.8928C27.925 25.1695 27.2932 24.9792 26.8226 24.4039C26.6267 24.1644 26.6501 23.8632 26.523 23.5419C25.9632 23.9129 25.3865 23.9685 24.7556 23.6601C24.5801 24.1911 24.4181 24.7021 23.8444 24.9C23.4999 25.0188 23.1653 25.0342 22.8208 24.9203C22.0025 24.6498 21.6991 23.9587 21.8352 22.6472C21.6147 22.567 21.383 22.5003 21.1663 22.4007C20.4665 22.0788 20.3741 21.5704 20.8861 20.9861C21.1651 20.6677 21.5605 20.5305 21.9142 20.2717ZM24.7622 22.215C25.1234 22.8721 25.7367 23.0081 26.1402 22.5204C26.4289 22.1714 26.4461 21.648 26.1584 21.3013C25.9303 21.0264 25.6487 20.8714 25.2771 21.0264C24.8535 21.203 24.6538 21.6187 24.7622 22.215Z" fill="white"/>
<path d="M27.6632 10.9256C27.1818 11.0242 26.7355 11.1023 26.2793 11.0998C25.7664 11.0969 25.4542 10.7909 25.5542 10.3032C25.7106 9.54084 26.1118 8.87158 26.4816 8.19737C26.6115 7.96043 26.8262 8.03674 26.9739 8.20068C27.4711 8.75246 27.9318 9.33511 28.2357 10.0185C28.4236 10.441 28.2473 10.7116 27.6632 10.9256Z" fill="white"/>
<path d="M27.3522 13.5659C27.2865 13.6354 27.2483 13.686 27.1979 13.7171C26.8534 13.9298 26.4431 13.8869 26.2072 13.6072C25.9806 13.3385 25.9738 13.0565 26.1969 12.7811C26.4269 12.4971 26.8377 12.4242 27.1415 12.6059C27.4904 12.8145 27.5629 13.1054 27.3522 13.5659Z" fill="white"/>
<path d="M26.4851 6.80968C26.3901 7.31236 26.1325 7.54659 25.7819 7.47124C25.5118 7.41319 25.316 7.25793 25.2742 6.96819C25.2332 6.68326 25.3515 6.46075 25.6061 6.33792C25.8802 6.20574 26.1375 6.26486 26.3366 6.49768C26.4024 6.57455 26.4332 6.68129 26.4851 6.80968Z" fill="white"/>
<path d="M27.4946 6.87684C27.2556 6.42322 27.3296 6.12017 27.6916 5.94686C28.0159 5.79162 28.3672 5.93454 28.5058 6.27811C28.6266 6.57747 28.4635 6.9192 28.1391 7.0442C27.901 7.13594 27.697 7.07395 27.4946 6.87684Z" fill="white"/>
<path d="M11.2159 18.3332C11.7472 17.9255 12.1822 17.9005 12.6053 18.2292C12.9635 18.5075 13.1046 18.9716 12.9453 19.3631C12.7809 19.7672 12.4712 19.9944 12.0432 20.0153C11.6364 20.0352 11.3046 19.8567 11.0987 19.4972C10.8728 19.1027 10.8982 18.717 11.2159 18.3332Z" fill="white"/>
<path d="M17.3658 13.5739C17.3445 14.178 17.057 14.5718 16.6143 14.6494C16.0971 14.7401 15.6224 14.4884 15.474 14.045C15.3359 13.6322 15.5861 13.1183 16.0205 12.9225C16.495 12.7086 16.9522 12.8454 17.2416 13.2929C17.2903 13.3683 17.3195 13.4562 17.3658 13.5739Z" fill="white"/>
<path d="M7.72379 15.3956C7.73614 16.1683 7.50724 16.5207 6.92417 16.6707C6.44947 16.7928 5.95545 16.5858 5.71996 16.1662C5.40125 15.5983 5.61997 14.8606 6.18004 14.6146C6.81518 14.3355 7.4604 14.6463 7.72379 15.3956Z" fill="white"/>
<path d="M13.5796 9.19853C13.0182 9.68014 12.41 9.70563 11.9628 9.2901C11.5395 8.8967 11.4821 8.29653 11.8209 7.80427C12.1483 7.32861 12.7285 7.18415 13.2687 7.44384C13.9053 7.74996 14.0539 8.51747 13.5796 9.19853Z" fill="white"/>
<path d="M16.7465 34.6049C16.9569 34.5175 17.13 34.5053 17.2672 34.6743C17.4131 34.8538 17.3657 35.0438 17.2752 35.2254C17.1384 35.4998 16.9617 35.7433 16.6639 35.8618C16.3082 36.0032 16.0525 35.799 16.1205 35.4249C16.1865 35.0621 16.392 34.7951 16.7465 34.6049Z" fill="white"/>
<path d="M15.1582 36.9292C15.4057 36.7673 15.63 36.6999 15.8337 36.9252C16.0005 37.1097 15.8988 37.2854 15.7895 37.4568C15.4951 37.9187 15.1261 38.1185 14.9018 37.9337C14.6769 37.7484 14.7647 37.3722 15.1582 36.9292Z" fill="white"/>
</svg>
