                <svg
                  width="82"
                  height="82"
                  viewBox="0 0 82 82"
                  fill="none"
                  xmlns="http://www.w3.org/2000/svg"
                >
                  <g clipPath="url(#clip0_72_2975)">
                    <path
                      d="M36.9 50.5667H61.5"
                      stroke="#0D0D0D"
                      strokeWidth="3.86866"
                    />
                    <path
                      d="M20.5 17.7667H42.3667"
                      stroke="#0D0D0D"
                      strokeWidth="3.86866"
                    />
                    <path
                      d="M20.5 34.1666H61.5"
                      stroke="#0D0D0D"
                      strokeWidth="3.86866"
                    />
                    <path
                      d="M20.5 42.3666H61.5"
                      stroke="#0D0D0D"
                      strokeWidth="3.86866"
                    />
                    <path
                      d="M20.5 25.9666H61.5"
                      stroke="#0D0D0D"
                      strokeWidth="3.86866"
                    />
                    <path
                      d="M20.5 72.4348C23.575 70.193 27.4188 66.9232 27.3333 62.8666C27.2727 59.985 26.539 58.811 24.6 58.7706C22.55 58.7279 21.8156 60.9453 21.8667 62.8666C21.9948 67.6918 26.3938 72.4348 28.7 72.4348C31.0063 72.4348 31.7018 66.9691 32.8 66.9691C33.8982 66.9691 35.2527 72.4348 36.9 72.4348C38.5473 72.4348 45.1 64.2362 45.1 64.2362"
                      stroke="#0152ff"
                      strokeWidth="3.86866"
                      strokeLinejoin="round"
                    />
                    <path
                      d="M12.3 5.46664V76.5333C12.3 78.7977 14.1356 80.6333 16.4 80.6333H65.6C67.8644 80.6333 69.7 78.7977 69.7 76.5333V17.7666L53.3 1.36664H16.4C14.1356 1.36664 12.3 3.20227 12.3 5.46664Z"
                      stroke="#0D0D0D"
                      strokeWidth="3.86866"
                    />
                    <path
                      d="M53.3 1.36664V13.6666C53.3 15.931 55.1356 17.7666 57.4 17.7666H69.7"
                      stroke="#0D0D0D"
                      strokeWidth="3.86866"
                    />
                  </g>
                  <defs>
                    <clipPath id="clip0_72_2975">
                      <rect width="82" height="82" fill="white" />
                    </clipPath>
                  </defs>
                </svg>