<svg
                  width="94"
                  height="94"
                  viewBox="0 0 94 94"
                  fill="none"
                  xmlns="http://www.w3.org/2000/svg"
                >
                  <path
                    d="M47.5 76.6459C64.7014 76.6459 78.6458 62.7014 78.6458 45.5C78.6458 28.2987 64.7014 14.3542 47.5 14.3542C30.2986 14.3542 16.3542 28.2987 16.3542 45.5C16.3542 62.7014 30.2986 76.6459 47.5 76.6459Z"
                    stroke="#0D0D0D"
                    strokeWidth="3.86866"
                  />
                  <path
                    d="M16.3542 44.1459C22.1094 44.1459 22.6454 49.0829 24.4792 50.9167C26.3129 52.7505 29.8958 51.1424 29.8958 53.625C29.8958 56.1077 27.1875 57.1797 27.1875 60.3959C27.1875 63.612 27.1875 69.1173 27.1875 69.1173"
                    stroke="#0D0D0D"
                    strokeWidth="3.86866"
                  />
                  <path
                    d="M76.247 33.4939C76.247 33.4939 70.7959 40.3584 69.1667 38.7292C67.5374 37.0999 63.8346 35.1745 65.1042 38.7292C66.3737 42.2839 70.5208 45.5 70.5208 45.5C70.5208 45.5 66.4583 49.9857 66.4583 52.2708C66.4583 54.556 63.75 54.0059 63.75 57.6875C63.75 61.3692 56.9792 63.1042 56.9792 63.1042C56.9792 63.1042 54.2708 60.0996 54.2708 57.6875C54.2708 55.2754 55.625 55.8255 55.625 53.625C55.625 51.4245 54.2708 50.6205 54.2708 48.2083C54.2708 45.7962 46.696 45.5 44.7917 45.5C42.8874 45.5 40.7292 44.6537 40.7292 42.7917C40.7292 40.9297 39.8616 38.2425 42.0833 36.0208C44.305 33.7992 47.8385 33.3125 50.2083 33.3125C53.8476 33.3125 52.832 34.6667 56.9792 34.6667C61.1263 34.6667 65.1042 35.2168 65.1042 31.9583C65.1042 28.6999 58.5026 27.8958 54.2708 27.8958C50.039 27.8958 48.1348 30.6042 44.7917 30.6042C42.972 28.7845 45.8496 25.3568 48.8542 23.8333C51.8587 22.3099 51.7295 21.125 50.2083 19.7708C52.1338 17.8454 60.785 17.3221 60.785 17.3221"
                    stroke="#0D0D0D"
                    strokeWidth="3.86866"
                  />
                  <path
                    d="M91.9658 14.8561L87.6804 23.4269L79.1096 19.1415"
                    stroke="#0152ff"
                    strokeWidth="3.86866"
                  />
                  <path
                    d="M66.2535 2C78.0884 2.03771 86.2074 12.1778 87.6804 23.4269"
                    stroke="#0152ff"
                    strokeWidth="3.86866"
                  />
                  <path
                    d="M2 79.1231L6.28537 70.5523L14.8561 74.8377"
                    stroke="#0152ff"
                    strokeWidth="3.86866"
                  />
                  <path
                    d="M27.7122 91.9792C15.8773 91.9415 7.75827 81.8014 6.28534 70.5523"
                    stroke="#0152ff"
                    strokeWidth="3.86866"
                  />
                </svg>