<svg
                  width="90"
                  height="90"
                  viewBox="0 0 90 90"
                  fill="none"
                  xmlns="http://www.w3.org/2000/svg"
                >
                  <g clipPath="url(#clip0_72_2935)">
                    <path
                      d="M58.2172 50.625H7.5C4.3934 50.625 1.875 48.1066 1.875 45V26.25C1.875 23.1434 4.3934 20.625 7.5 20.625H75C78.1066 20.625 80.625 23.1434 80.625 26.25V34.3207"
                      stroke="#0D0D0D"
                      strokeWidth="3.86866"
                    />
                    <path
                      d="M41.0613 27.4713V43.7787"
                      stroke="#0D0D0D"
                      strokeWidth="3.86866"
                    />
                    <path
                      d="M48.1226 31.5482L34 39.7018"
                      stroke="#0D0D0D"
                      strokeWidth="3.86866"
                    />
                    <path
                      d="M34 31.5482L48.1226 39.7018"
                      stroke="#0D0D0D"
                      strokeWidth="3.86866"
                    />
                    <path
                      d="M18.0613 27.4713V43.7787"
                      stroke="#0D0D0D"
                      strokeWidth="3.86866"
                    />
                    <path
                      d="M25.1226 31.5482L11 39.7018"
                      stroke="#0D0D0D"
                      strokeWidth="3.86866"
                    />
                    <path
                      d="M11 31.5482L25.1226 39.7018"
                      stroke="#0D0D0D"
                      strokeWidth="3.86866"
                    />
                    <path
                      d="M73.125 69.375C86.25 63.2609 88.125 59.0829 88.125 46.5489V36.7663L73.125 31.875L58.125 36.7663V46.5489C58.125 59.0829 60 63.2609 73.125 69.375Z"
                      stroke="#0152ff"
                      strokeWidth="3.86866"
                    />
                    <path
                      d="M80.625 50.625C80.3613 56.0372 79.0288 58.0112 73.125 61.0405V50.6254L80.625 50.625Z"
                      stroke="#0152ff"
                      strokeWidth="3.86866"
                      strokeLinejoin="round"
                    />
                    <path
                      d="M65.625 50.625V42.2095L73.125 39.7632V50.6254L65.625 50.625Z"
                      stroke="#0152ff"
                      strokeWidth="3.86866"
                      strokeLinejoin="round"
                    />
                  </g>
                  <defs>
                    <clipPath id="clip0_72_2935">
                      <rect width="90" height="90" fill="white" />
                    </clipPath>
                  </defs>
                </svg>